<svg width="17" height="28" viewBox="0 0 17 28" fill="none" xmlns="http://www.w3.org/2000/svg">
<path d="M15.7305 21.4609C15.7305 21.2969 15.6719 21.1445 15.5547 21.0039C15.4375 20.8633 15.2793 20.793 15.0801 20.793C14.7871 20.793 14.582 20.9277 14.4648 21.1973C14.3711 21.3965 14.248 21.6484 14.0957 21.9531C13.9434 22.2461 13.7676 22.5566 13.5684 22.8848C13.3691 23.2012 13.1465 23.5234 12.9004 23.8516C12.6543 24.168 12.3965 24.4609 12.127 24.7305C11.8574 24.9883 11.582 25.1992 11.3008 25.3633C11.0195 25.5156 10.7383 25.5918 10.457 25.5918C10.2109 25.5918 10.0117 25.5273 9.85938 25.3984C9.70703 25.2578 9.58984 25.082 9.50781 24.8711C9.4375 24.6484 9.38477 24.4023 9.34961 24.1328C9.32617 23.8516 9.31445 23.5703 9.31445 23.2891C9.31445 22.7969 9.33789 22.3281 9.38477 21.8828C9.44336 21.4258 9.47266 21.0625 9.47266 20.793C9.47266 20.4648 9.43164 20.1602 9.34961 19.8789C9.2793 19.5977 9.16797 19.3516 9.01562 19.1406C8.875 18.9297 8.6875 18.7656 8.45312 18.6484C8.23047 18.5195 7.9668 18.4551 7.66211 18.4551C7.35742 18.4551 7.0293 18.5488 6.67773 18.7363C6.33789 18.9121 5.99805 19.2051 5.6582 19.6152C5.31836 20.0371 4.99023 20.4883 4.67383 20.9688C4.35742 21.4492 4.05859 21.9355 3.77734 22.4277C3.49609 22.9082 3.23242 23.3828 2.98633 23.8516C2.74023 24.3086 2.52344 24.7363 2.33594 25.1348L2.31836 24.3086V21.2324C2.93945 20.0957 3.53125 18.9297 4.09375 17.7344C4.65625 16.5273 5.14844 15.291 5.57031 14.0254C5.99219 12.7598 6.32617 11.4648 6.57227 10.1406C6.83008 8.80469 6.95898 7.44531 6.95898 6.0625C6.95898 5.38281 6.91211 4.73828 6.81836 4.12891C6.72461 3.50781 6.57227 2.96875 6.36133 2.51172C6.15039 2.04297 5.875 1.67383 5.53516 1.4043C5.19531 1.13477 4.7793 1 4.28711 1C3.71289 1 3.23242 1.26953 2.8457 1.80859C2.4707 2.34766 2.16016 3.11523 1.91406 4.11133C1.66797 5.0957 1.48047 6.29102 1.35156 7.69727C1.23438 9.0918 1.14648 10.6562 1.08789 12.3906C1.04102 14.1133 1.01172 15.9824 1 17.998V25.4336C1 25.8438 1.09375 26.1953 1.28125 26.4883C1.48047 26.7695 1.76172 26.9102 2.125 26.9102C2.32422 26.9102 2.54688 26.8223 2.79297 26.6465C3.05078 26.4824 3.30273 26.1543 3.54883 25.6621C3.67773 25.4043 3.8418 25.082 4.04102 24.6953C4.24023 24.2969 4.46289 23.8809 4.70898 23.4473C4.95508 23.0137 5.20703 22.5801 5.46484 22.1465C5.73438 21.7012 5.99805 21.3027 6.25586 20.9512C6.52539 20.5996 6.77734 20.3184 7.01172 20.1074C7.25781 19.8848 7.47461 19.7734 7.66211 19.7734C7.79102 19.7734 7.90234 19.8379 7.99609 19.9668C8.10156 20.0957 8.1543 20.3418 8.1543 20.7051C8.1543 20.8457 8.14258 21.0215 8.11914 21.2324C8.10742 21.4316 8.08984 21.6484 8.06641 21.8828C8.04297 22.1172 8.01953 22.3574 7.99609 22.6035C7.98438 22.8379 7.97852 23.0605 7.97852 23.2715C7.97852 23.6816 8.00781 24.1035 8.06641 24.5371C8.13672 24.9707 8.25977 25.3633 8.43555 25.7148C8.62305 26.0664 8.88086 26.3594 9.20898 26.5938C9.53711 26.8164 9.9707 26.9277 10.5098 26.9277C10.9785 26.9277 11.4238 26.8164 11.8457 26.5938C12.2793 26.3594 12.6777 26.0664 13.041 25.7148C13.416 25.3516 13.7559 24.959 14.0605 24.5371C14.3652 24.1152 14.6289 23.7109 14.8516 23.3242C15.0859 22.9375 15.2676 22.5977 15.3965 22.3047C15.5371 22.0117 15.6309 21.8184 15.6777 21.7246C15.7129 21.6426 15.7305 21.5547 15.7305 21.4609ZM4.64062 6.04492C4.64062 5.88801 4.63074 5.61307 4.60742 5.20508L4.60645 5.19141L4.60547 5.17676C4.59564 4.83334 4.5514 4.48034 4.4707 4.11719L4.46777 4.10449L4.46582 4.09082C4.43452 3.92995 4.39426 3.7861 4.34766 3.65723C4.26611 3.86876 4.1809 4.1401 4.10059 4.48145L4.09961 4.48535C3.97038 5.0238 3.85902 5.66925 3.76855 6.42676C3.67709 7.19276 3.60248 8.0077 3.54492 8.87109C3.48728 9.73574 3.44003 10.6241 3.40527 11.5361C3.38923 12.1697 3.37673 12.793 3.36621 13.4043C3.50262 12.9878 3.63101 12.5738 3.74512 12.1602L3.74805 12.1494C4.02962 11.1695 4.24865 10.1786 4.40625 9.17676C4.56175 8.17655 4.64062 7.13293 4.64062 6.04492ZM7.95898 6.0625C7.95898 7.50523 7.82376 8.92534 7.55469 10.3223L7.55566 10.3232C7.30124 11.6923 6.95512 13.0321 6.51855 14.3418C6.08467 15.6434 5.57859 16.9157 5 18.1572L4.99902 18.1602C4.68329 18.8311 4.35655 19.4924 4.02246 20.1455C4.29885 19.7406 4.58463 19.3548 4.87988 18.9883L4.8877 18.9775C5.27896 18.5053 5.71544 18.1103 6.20703 17.8535C6.6603 17.6118 7.15058 17.4551 7.66211 17.4551C8.09009 17.4551 8.51296 17.5438 8.89941 17.7539C9.27259 17.9405 9.58714 18.2094 9.8252 18.5547H9.82617C10.0533 18.8692 10.2091 19.2225 10.3076 19.5986H10.3096C10.4211 19.981 10.4727 20.3813 10.4727 20.793C10.4727 21.1244 10.4377 21.5357 10.377 22.0098C10.3356 22.4106 10.3145 22.8368 10.3145 23.2891C10.3145 23.5321 10.3243 23.7752 10.3438 24.0186C10.37 24.2146 10.4067 24.3842 10.4502 24.5303C10.4602 24.5533 10.4703 24.5729 10.4805 24.5898C10.5666 24.5862 10.6727 24.5618 10.8076 24.4912C11.0083 24.3728 11.2183 24.2156 11.4346 24.0088C11.6681 23.774 11.8939 23.5168 12.1113 23.2373C12.3383 22.9339 12.5411 22.6383 12.7217 22.3516C12.9076 22.0448 13.0695 21.7586 13.208 21.4922C13.3552 21.1976 13.4719 20.9579 13.5596 20.7715H13.5605C13.6819 20.5039 13.8722 20.2459 14.1572 20.0586C14.4522 19.8647 14.7768 19.793 15.0801 19.793C15.4882 19.793 15.8845 19.9312 16.1953 20.2275L16.3232 20.3633L16.4121 20.4795C16.6088 20.7565 16.7305 21.089 16.7305 21.4609C16.7305 21.6831 16.6878 21.9055 16.5967 22.1182L16.585 22.1455L16.5723 22.1719C16.5296 22.2571 16.4391 22.443 16.2979 22.7373C16.1474 23.0745 15.9483 23.4446 15.707 23.8428L15.7061 23.8418C15.4662 24.2567 15.1878 24.6845 14.8711 25.123C14.532 25.5925 14.1532 26.0288 13.7363 26.4326V26.4336C13.3092 26.8469 12.8372 27.1948 12.3213 27.4736L12.3125 27.4785C11.7494 27.7757 11.1441 27.9277 10.5098 27.9277C9.84067 27.9277 9.19112 27.7898 8.64746 27.4209L8.62793 27.4072C8.17589 27.0843 7.81371 26.6749 7.55273 26.1855L7.54102 26.1621C7.31504 25.7102 7.16373 25.2191 7.0791 24.6973L7.07715 24.6846L7.0752 24.6709C7.01101 24.1959 6.97852 23.7292 6.97852 23.2715C6.97852 23.0422 6.98462 22.8028 6.99707 22.5537L6.99805 22.5312L7.00098 22.5088C7.02456 22.2612 7.04769 22.0192 7.07129 21.7832C7.081 21.6861 7.08626 21.5925 7.09375 21.5029C7.08274 21.5171 7.07171 21.5314 7.06055 21.5459C6.82383 21.8689 6.57657 22.2407 6.32031 22.6641C6.06737 23.0896 5.82049 23.5151 5.5791 23.9404C5.34066 24.3605 5.12607 24.7615 4.93555 25.1426L4.92969 25.1533C4.73152 25.538 4.5698 25.8565 4.44336 26.1094C4.18032 26.6354 3.8397 27.1443 3.37305 27.459L3.37402 27.46C3.04099 27.6978 2.61529 27.9102 2.125 27.9102C1.45806 27.9102 0.863186 27.6288 0.464844 27.0664L0.451172 27.0469L0.439453 27.0273C0.131688 26.5465 0 26 0 25.4336V17.9922L0.03125 15.0684C0.0459536 14.1304 0.0643453 13.2286 0.0878906 12.3633L0.0888672 12.3564C0.147897 10.6093 0.23661 9.0277 0.355469 7.61328V7.60645C0.487299 6.16829 0.682331 4.91973 0.944336 3.87109H0.943359C1.20412 2.81577 1.55174 1.91678 2.02441 1.2373L2.0293 1.23145L2.0332 1.22559C2.57428 0.471402 3.33728 0 4.28711 0C4.97289 0 5.61609 0.192705 6.15625 0.621094C6.64024 1.00495 7.00537 1.5087 7.26953 2.09277L7.3623 2.30664C7.57049 2.81305 7.71618 3.37379 7.80762 3.97949H7.80664C7.9086 4.64321 7.95898 5.33794 7.95898 6.0625ZM5.64062 6.04492C5.64062 7.18164 5.55859 8.27734 5.39453 9.33203C5.23047 10.375 5.00195 11.4062 4.70898 12.4258C4.42773 13.4453 4.08203 14.4707 3.67188 15.502C3.27344 16.5215 2.82812 17.5703 2.33594 18.6484V16.6621C2.33594 15.9004 2.3418 15.0859 2.35352 14.2188C2.36523 13.3398 2.38281 12.4375 2.40625 11.5117C2.44141 10.5859 2.48828 9.68359 2.54688 8.80469C2.60547 7.92578 2.68164 7.09375 2.77539 6.30859C2.86914 5.52344 2.98633 4.83789 3.12695 4.25195C3.26758 3.6543 3.43164 3.18555 3.61914 2.8457C3.80664 2.49414 4.0293 2.31836 4.28711 2.31836C4.61523 2.31836 4.86719 2.47656 5.04297 2.79297C5.23047 3.10938 5.36523 3.47852 5.44727 3.90039C5.54102 4.32227 5.59375 4.73828 5.60547 5.14844C5.62891 5.55859 5.64062 5.85742 5.64062 6.04492Z" fill="black"/>
</svg>
