<svg width="37" height="28" viewBox="0 0 37 28" fill="none" xmlns="http://www.w3.org/2000/svg">
<path d="M20.9004 5.09766C21.0762 5.09766 21.2285 5.16211 21.3574 5.29102C21.498 5.4082 21.5684 5.56641 21.5684 5.76562C21.5684 6.02344 21.457 6.2168 21.2344 6.3457C21.1992 6.36914 21.041 6.48047 20.7598 6.67969C20.4902 6.87891 20.1914 7.20117 19.8633 7.64648C19.5352 8.0918 19.2188 8.68359 18.9141 9.42188C18.6094 10.1484 18.416 11.0508 18.334 12.1289C18.3105 12.3164 18.293 12.5039 18.2812 12.6914C18.2812 12.8789 18.2754 13.0664 18.2637 13.2539C18.4746 13.2305 18.6914 13.2129 18.9141 13.2012C19.1484 13.1777 19.3945 13.166 19.6523 13.166C20.4961 13.166 21.3105 13.2598 22.0957 13.4473C22.8809 13.6348 23.6016 13.9043 24.2578 14.2559C25.957 13.5762 27.2578 12.6738 28.1602 11.5488C29.0625 10.4238 29.5137 9.16992 29.5137 7.78711C29.5137 6.75586 29.2559 5.8418 28.7402 5.04492C28.2246 4.23633 27.498 3.55664 26.5605 3.00586C25.6348 2.45508 24.5215 2.0332 23.2207 1.74023C21.9316 1.44727 20.5137 1.30078 18.9668 1.30078C17.6191 1.30078 16.2422 1.40625 14.8359 1.61719C13.4414 1.81641 12.0879 2.12109 10.7754 2.53125C9.47461 2.94141 8.25 3.45117 7.10156 4.06055C5.95312 4.66992 4.95117 5.37305 4.0957 6.16992C3.24023 6.95508 2.56641 7.83398 2.07422 8.80664C1.58203 9.7793 1.33594 10.834 1.33594 11.9707C1.33594 12.8145 1.48242 13.5586 1.77539 14.2031C2.06836 14.8359 2.45508 15.3691 2.93555 15.8027C3.42773 16.2246 3.99023 16.5469 4.62305 16.7695C5.25586 16.9805 5.91797 17.0859 6.60938 17.0859C7.42969 17.0859 8.15039 17.0039 8.77148 16.8398C9.39258 16.6758 9.91406 16.5 10.3359 16.3125C10.7578 16.1133 11.0742 15.9316 11.2852 15.7676C11.5078 15.5918 11.6309 15.4922 11.6543 15.4688C11.7363 15.4102 11.8301 15.3457 11.9355 15.2754C12.041 15.1934 12.1523 15.1523 12.2695 15.1523C12.4453 15.1523 12.5977 15.2168 12.7266 15.3457C12.8555 15.4629 12.9199 15.6152 12.9199 15.8027C12.9199 15.9902 12.8555 16.1426 12.7266 16.2598C12.7031 16.2832 12.5508 16.4121 12.2695 16.6465C12 16.8691 11.6074 17.1094 11.0918 17.3672C10.5762 17.625 9.94336 17.8594 9.19336 18.0703C8.45508 18.2812 7.60547 18.3867 6.64453 18.3867C5.75391 18.3867 4.9043 18.2402 4.0957 17.9473C3.29883 17.6543 2.5957 17.2324 1.98633 16.6816C1.37695 16.1309 0.890625 15.4629 0.527344 14.6777C0.175781 13.8809 0 12.9785 0 11.9707C0 10.8574 0.228516 9.79102 0.685547 8.77148C1.14258 7.74023 1.78711 6.7793 2.61914 5.88867C3.45117 4.99805 4.44727 4.19531 5.60742 3.48047C6.76758 2.75391 8.04492 2.13281 9.43945 1.61719C10.8457 1.10156 12.3516 0.703125 13.957 0.421875C15.5625 0.140625 17.2207 0 18.9316 0C20.6777 0 22.2773 0.175781 23.7305 0.527344C25.1953 0.867188 26.4551 1.36523 27.5098 2.02148C28.5645 2.66602 29.3848 3.46289 29.9707 4.41211C30.5566 5.34961 30.8496 6.41602 30.8496 7.61133C30.8496 9.19336 30.3926 10.6289 29.4785 11.918C28.5762 13.207 27.2461 14.2793 25.4883 15.1348C26.1328 15.6855 26.6367 16.3301 27 17.0684C27.375 17.7949 27.6504 18.5332 27.8262 19.2832C28.0137 20.0332 28.1309 20.748 28.1777 21.4277C28.2363 22.1074 28.2773 22.6758 28.3008 23.1328C28.3242 23.8008 28.3828 24.3457 28.4766 24.7676C28.582 25.1777 28.7227 25.5 28.8984 25.7344C29.0859 25.9688 29.3086 26.1328 29.5664 26.2266C29.8359 26.3086 30.1582 26.3496 30.5332 26.3496C31.0605 26.3496 31.5469 26.2266 31.9922 25.9805C32.4375 25.7227 32.8359 25.4062 33.1875 25.0312C33.5508 24.6562 33.8672 24.252 34.1367 23.8184C34.418 23.373 34.6523 22.9629 34.8398 22.5879C35.0273 22.2012 35.168 21.8848 35.2617 21.6387C35.3672 21.3809 35.4199 21.2461 35.4199 21.2344C35.5371 20.9414 35.7422 20.7949 36.0352 20.7949C36.2344 20.7949 36.3926 20.8652 36.5098 21.0059C36.6387 21.1348 36.7031 21.2871 36.7031 21.4629C36.7031 21.5215 36.6914 21.5977 36.668 21.6914C36.6562 21.7383 36.5859 21.9199 36.457 22.2363C36.3398 22.541 36.1641 22.916 35.9297 23.3613C35.6953 23.7949 35.4023 24.2637 35.0508 24.7676C34.6992 25.2715 34.2891 25.7402 33.8203 26.1738C33.3633 26.5957 32.8418 26.9473 32.2559 27.2285C31.6816 27.5098 31.043 27.6504 30.3398 27.6504C29.7188 27.6504 29.1973 27.5508 28.7754 27.3516C28.3652 27.1523 28.0254 26.8652 27.7559 26.4902C27.498 26.1035 27.3047 25.6406 27.1758 25.1016C27.0586 24.5508 26.9883 23.9238 26.9648 23.2207C26.9531 22.9277 26.9355 22.582 26.9121 22.1836C26.8887 21.7734 26.8418 21.3457 26.7715 20.9004C26.7129 20.4434 26.625 19.9746 26.5078 19.4941C26.3906 19.0137 26.2266 18.5449 26.0156 18.0879C25.8047 17.6309 25.541 17.1973 25.2246 16.7871C24.9082 16.377 24.5215 16.0195 24.0645 15.7148C23.1621 16.0195 22.2246 16.2598 21.252 16.4355C20.291 16.5996 19.2949 16.6875 18.2637 16.6992V17.2266C18.2637 18.668 18.1172 20.0215 17.8242 21.2871C17.543 22.541 17.0801 23.6367 16.4355 24.5742C15.791 25.5 14.959 26.2266 13.9395 26.7539C12.9199 27.293 11.6777 27.5625 10.2129 27.5625C9.48633 27.5625 8.76562 27.4629 8.05078 27.2637C7.34766 27.0762 6.68555 26.8125 6.06445 26.4727C5.45508 26.1328 4.9043 25.7344 4.41211 25.2773C3.93164 24.8086 3.55078 24.3047 3.26953 23.7656C3.21094 23.6719 3.18164 23.5664 3.18164 23.4492C3.18164 23.2852 3.24023 23.1387 3.35742 23.0098C3.48633 22.8691 3.65039 22.7988 3.84961 22.7988C4.10742 22.7988 4.30078 22.9102 4.42969 23.1328C4.6875 23.5898 5.02148 24.0117 5.43164 24.3984C5.8418 24.7852 6.29883 25.1191 6.80273 25.4004C7.31836 25.6699 7.86328 25.8809 8.4375 26.0332C9.02344 26.1855 9.61523 26.2617 10.2129 26.2617C11.4199 26.2617 12.4512 26.0508 13.3066 25.6289C14.1621 25.1953 14.8594 24.5859 15.3984 23.8008C15.9375 23.0039 16.3301 22.0547 16.5762 20.9531C16.8223 19.8398 16.9453 18.5977 16.9453 17.2266V16.541C16.5586 16.4121 16.248 16.2305 16.0137 15.9961C15.7793 15.7617 15.6621 15.4746 15.6621 15.1348C15.6621 14.7949 15.7734 14.4961 15.9961 14.2383C16.2188 13.9805 16.5352 13.7695 16.9453 13.6055C16.9453 13.3359 16.9512 13.0723 16.9629 12.8145C16.9746 12.5449 16.9922 12.2812 17.0156 12.0234C17.0859 11.1797 17.2148 10.4238 17.4023 9.75586C17.6016 9.08789 17.8301 8.50195 18.0879 7.99805C18.3574 7.49414 18.6328 7.06641 18.9141 6.71484C19.1953 6.36328 19.459 6.07617 19.7051 5.85352C19.9512 5.61914 20.1562 5.44922 20.3203 5.34375C20.4844 5.23828 20.5781 5.17969 20.6016 5.16797C20.6836 5.12109 20.7832 5.09766 20.9004 5.09766ZM22.5527 14.9062C22.3535 14.8477 22.1602 14.7891 21.9727 14.7305C21.7852 14.6719 21.5801 14.625 21.3574 14.5898C21.1465 14.543 20.9062 14.5078 20.6367 14.4844C20.3789 14.4492 20.0801 14.4316 19.7402 14.4316C19.1309 14.4316 18.6328 14.4668 18.2461 14.5371V14.5547V15.3984C18.9609 15.3984 19.6934 15.3574 20.4434 15.2754C21.2051 15.1934 21.9082 15.0703 22.5527 14.9062Z" fill="white"/>
</svg>
