<svg width="11" height="27" viewBox="0 0 11 27" fill="none" xmlns="http://www.w3.org/2000/svg">
<path d="M10.1426 20.7598C10.0137 21.0293 9.84961 21.3516 9.65039 21.7266C9.46289 22.0898 9.24609 22.4707 9 22.8691C8.75391 23.2676 8.47852 23.666 8.17383 24.0645C7.86914 24.4512 7.53516 24.8027 7.17188 25.1191C6.82031 25.4238 6.43945 25.6699 6.0293 25.8574C5.63086 26.0566 5.20312 26.1562 4.74609 26.1562C4.04297 26.1562 3.43945 25.9395 2.93555 25.5059C2.43164 25.0723 2.00391 24.5039 1.65234 23.8008C1.30078 23.0977 1.01367 22.3008 0.791016 21.4102C0.580078 20.5078 0.416016 19.5938 0.298828 18.668C0.181641 17.7305 0.0996094 16.8223 0.0527344 15.9434C0.0175781 15.0645 0 14.2852 0 13.6055C0 12.6211 0.0292969 11.6016 0.0878906 10.5469C0.158203 9.49219 0.263672 8.46094 0.404297 7.45312C0.544922 6.44531 0.720703 5.49023 0.931641 4.58789C1.1543 3.68555 1.41211 2.89453 1.70508 2.21484C2.00977 1.53516 2.35547 0.996094 2.74219 0.597656C3.12891 0.199219 3.56836 0 4.06055 0C4.44727 0 4.79297 0.09375 5.09766 0.28125C5.41406 0.457031 5.67773 0.75 5.88867 1.16016C6.09961 1.57031 6.26367 2.10352 6.38086 2.75977C6.49805 3.41602 6.55664 4.21875 6.55664 5.16797C6.55664 6.33984 6.43359 7.55273 6.1875 8.80664C5.94141 10.0488 5.60742 11.3027 5.18555 12.5684C4.76367 13.834 4.26562 15.0996 3.69141 16.3652C3.11719 17.6191 2.50195 18.8438 1.8457 20.0391C2.13867 21.5273 2.53125 22.6992 3.02344 23.5547C3.51562 24.3984 4.10742 24.8203 4.79883 24.8203C5.26758 24.8203 5.71875 24.6387 6.15234 24.2754C6.58594 23.9004 6.98438 23.4609 7.34766 22.957C7.71094 22.4531 8.02734 21.9434 8.29688 21.4277C8.57812 20.9004 8.79492 20.4785 8.94727 20.1621C9.00586 20.0449 9.08789 19.957 9.19336 19.8984C9.29883 19.8281 9.41602 19.793 9.54492 19.793C9.74414 19.793 9.90234 19.8633 10.0195 20.0039C10.1484 20.1445 10.2129 20.3027 10.2129 20.4785C10.2129 20.5488 10.1895 20.6426 10.1426 20.7598ZM1.33594 13.6934C1.33594 14.4434 1.35352 15.1641 1.38867 15.8555C1.42383 16.5469 1.4707 17.209 1.5293 17.8418C2.02148 16.8926 2.49023 15.8848 2.93555 14.8184C3.38086 13.7402 3.77344 12.6562 4.11328 11.5664C4.45312 10.4648 4.72266 9.375 4.92188 8.29688C5.13281 7.20703 5.23828 6.16992 5.23828 5.18555C5.23828 3.80273 5.12695 2.8125 4.9043 2.21484C4.68164 1.61719 4.38281 1.31836 4.00781 1.31836C3.76172 1.31836 3.52148 1.48828 3.28711 1.82812C3.06445 2.16797 2.85352 2.63086 2.6543 3.2168C2.45508 3.80273 2.27344 4.49414 2.10938 5.29102C1.94531 6.08789 1.80469 6.94336 1.6875 7.85742C1.58203 8.77148 1.49414 9.72656 1.42383 10.7227C1.36523 11.7188 1.33594 12.709 1.33594 13.6934Z" fill="white"/>
</svg>
