<svg width="34" height="29" viewBox="0 0 34 29" fill="none" xmlns="http://www.w3.org/2000/svg">
<path d="M0 8.03125C0 6.81276 0.269175 5.68031 0.823242 4.65527L0.828125 4.64648C1.38161 3.64752 2.13704 2.80077 3.08105 2.10938C4.01542 1.42505 5.09322 0.910353 6.30078 0.553711V0.552734C7.52815 0.18197 8.83334 0 10.2109 0C11.0979 0 12.0703 0.0752309 13.125 0.220703C14.161 0.363604 15.2598 0.541619 16.4209 0.754883L16.4199 0.755859C17.5878 0.968213 18.8022 1.20278 20.0625 1.46191C21.3166 1.70568 22.5943 1.93746 23.8955 2.1582C25.1933 2.37836 26.4972 2.57019 27.8066 2.73242H27.8057C29.1106 2.89267 30.4029 2.98915 31.6826 3.02344H32.043V4.02344H31.6562C30.3438 3.98828 29.0195 3.88867 27.6836 3.72461C26.3594 3.56055 25.041 3.36719 23.7285 3.14453C22.416 2.92188 21.127 2.6875 19.8613 2.44141C18.6074 2.18359 17.4004 1.94922 16.2402 1.73828C15.0918 1.52734 14.0078 1.35156 12.9883 1.21094C11.9688 1.07031 11.043 1 10.2109 1C8.92188 1 7.71484 1.16992 6.58984 1.50977C5.47656 1.83789 4.50391 2.30664 3.67188 2.91602C2.83984 3.52539 2.18359 4.26367 1.70312 5.13086C1.23438 5.99805 1 6.96484 1 8.03125C1 8.78125 1.12305 9.50195 1.36914 10.1934C1.62695 10.873 2.00781 11.4707 2.51172 11.9863C3.02734 12.502 3.66602 12.918 4.42773 13.2344C5.18945 13.5391 6.08008 13.6914 7.09961 13.6914C8.01367 13.6914 8.91602 13.5391 9.80664 13.2344C10.709 12.9297 11.541 12.4785 12.3027 11.8809C12.4668 11.752 12.5488 11.5762 12.5488 11.3535C12.5488 11.166 12.4785 11.0137 12.3379 10.8965C12.209 10.7676 12.0566 10.7031 11.8809 10.7031C11.7402 10.7031 11.6055 10.75 11.4766 10.8438C10.832 11.3477 10.1348 11.7285 9.38477 11.9863C8.63477 12.2441 7.87305 12.373 7.09961 12.373V11.373C7.75954 11.373 8.41156 11.2637 9.05957 11.041C9.7012 10.8205 10.3005 10.4933 10.8604 10.0557L10.874 10.0449L10.8887 10.0352C11.1647 9.83444 11.5013 9.70312 11.8809 9.70312C12.301 9.70312 12.6783 9.85813 12.9775 10.1279C12.9937 10.1414 13.0089 10.1569 13.0244 10.1709C13.031 10.1773 13.0384 10.1829 13.0449 10.1895H13.0439C13.3748 10.4967 13.5488 10.907 13.5488 11.3535C13.5488 11.8591 13.3441 12.3343 12.9209 12.667L12.9199 12.668C12.0713 13.3338 11.1394 13.8381 10.1289 14.1797L10.1299 14.1807C9.13835 14.5198 8.12692 14.6914 7.09961 14.6914C5.98282 14.6914 4.96125 14.5249 4.05664 14.1631L4.04395 14.1582C3.17707 13.7981 2.4243 13.313 1.80469 12.6934L1.79688 12.6855C1.19597 12.0707 0.740768 11.3551 0.43457 10.5479L0.426758 10.5283C0.141602 9.72702 0 8.89282 0 8.03125ZM2.31836 8.03125C2.31836 7.17578 2.51758 6.39648 2.91602 5.69336C3.32617 4.99023 3.88281 4.38672 4.58594 3.88281C5.30078 3.37891 6.13281 2.99219 7.08203 2.72266C8.04297 2.45312 9.07422 2.31836 10.1758 2.31836C10.8789 2.31836 11.6875 2.38281 12.6016 2.51172C13.5156 2.62891 14.5 2.78711 15.5547 2.98633C16.6211 3.17383 17.7461 3.38477 18.9297 3.61914C20.1133 3.85352 21.3262 4.08203 22.5684 4.30469C23.8105 4.52734 25.0703 4.73242 26.3477 4.91992C27.6367 5.0957 28.9082 5.22461 30.1621 5.30664C29.6465 5.70508 29.0078 6.20312 28.2461 6.80078C27.4961 7.38672 26.6641 8.03711 25.75 8.75195C24.8359 9.4668 23.8691 10.2344 22.8496 11.0547C21.8301 11.8633 20.793 12.6895 19.7383 13.5332C18.6836 14.3652 17.6406 15.1973 16.6094 16.0293C15.5781 16.8496 14.5938 17.6406 13.6562 18.4023C12.7305 19.1641 11.875 19.873 11.0898 20.5293C10.3047 21.1738 9.63672 21.7363 9.08594 22.2168C8.125 23.0488 7.35156 23.7461 6.76562 24.3086C6.19141 24.8594 5.72266 25.334 5.35938 25.7324C5.16016 25.9316 5.01953 26.1191 4.9375 26.2949C4.86719 26.4707 4.83203 26.6406 4.83203 26.8047C4.83203 27.1094 4.94336 27.332 5.16602 27.4727C5.38867 27.625 5.64062 27.7012 5.92188 27.7012C6.00391 27.7012 6.11523 27.6895 6.25586 27.666C6.4082 27.6543 6.57227 27.6367 6.74805 27.6133L7.83789 27.4375C8.42383 27.3555 9.13281 27.2559 9.96484 27.1387C10.7969 27.0332 11.7344 26.9336 12.7773 26.8398C13.8203 26.7461 14.9629 26.6641 16.2051 26.5938C17.4473 26.5234 18.7715 26.4883 20.1777 26.4883C21.7832 26.4883 23.4883 26.5586 25.293 26.6992C27.1094 26.8281 29.0605 27.0625 31.1465 27.4023C31.2051 27.4141 31.2578 27.4199 31.3047 27.4199C31.4922 27.4199 31.6504 27.3496 31.7793 27.209C31.9082 27.0801 31.9727 26.916 31.9727 26.7168C31.9727 26.5527 31.9199 26.4121 31.8145 26.2949C31.709 26.1777 31.5742 26.1074 31.4102 26.084C29.2891 25.7441 27.2969 25.5098 25.4336 25.3809C23.582 25.2402 21.8359 25.1699 20.1953 25.1699C18.4492 25.1699 16.8555 25.2168 15.4141 25.3105C13.9844 25.4043 12.7012 25.5156 11.5645 25.6445C10.4277 25.7617 9.44336 25.8906 8.61133 26.0312C7.79102 26.1719 7.11133 26.2832 6.57227 26.3652C6.87695 26.0137 7.35742 25.5391 8.01367 24.9414C8.66992 24.332 9.45508 23.6406 10.3691 22.8672C11.2832 22.082 12.3027 21.2207 13.4277 20.2832C14.5645 19.3457 15.7598 18.373 17.0137 17.3652C18.2676 16.3457 19.5625 15.3086 20.8984 14.2539C22.2461 13.1875 23.582 12.1328 24.9062 11.0898C26.2422 10.0352 27.5488 9.01562 28.8262 8.03125C30.1152 7.03516 31.3281 6.09766 32.4648 5.21875C32.6406 5.10156 32.7285 4.92578 32.7285 4.69141C32.7285 4.63281 32.7168 4.55664 32.6934 4.46289C32.6348 4.33398 32.5469 4.22852 32.4297 4.14648C32.3125 4.06445 32.1836 4.02344 32.043 4.02344V3.02344C32.3924 3.02344 32.7208 3.12971 33.0029 3.32715C33.265 3.51059 33.4701 3.75547 33.6035 4.04883L33.6416 4.13184L33.6631 4.2207C33.6953 4.34963 33.7285 4.51561 33.7285 4.69141C33.7285 5.19615 33.5224 5.6817 33.0742 6.00781L33.0762 6.00977C31.9394 6.88869 30.7265 7.82619 29.4375 8.82227L29.4365 8.82324C28.1625 9.80507 26.8594 10.8226 25.5264 11.875H25.5254C24.2018 12.9175 22.8656 13.9721 21.5186 15.0381V15.0391C20.1862 16.0909 18.8945 17.1252 17.6445 18.1416L17.6406 18.1445C16.3911 19.1488 15.1994 20.1172 14.0674 21.0508C12.9454 21.9857 11.9301 22.8447 11.0205 23.626L11.0146 23.6309C10.4914 24.0736 10.013 24.4883 9.57812 24.874C9.91065 24.8285 10.2599 24.7837 10.626 24.7412L11.4619 24.6494C12.6151 24.5188 13.9111 24.4068 15.3486 24.3125H15.3496C16.8164 24.2171 18.432 24.1699 20.1953 24.1699C21.862 24.1699 23.6311 24.2409 25.502 24.3828C27.394 24.5137 29.4109 24.7514 31.5508 25.0938C31.5544 25.0943 31.5589 25.0952 31.5625 25.0957C31.5644 25.096 31.5664 25.0964 31.5684 25.0967H31.5674C31.8965 25.1467 32.2022 25.2865 32.4521 25.5186L32.5576 25.626L32.6553 25.7451C32.8677 26.0306 32.9727 26.3667 32.9727 26.7168C32.9727 27.1407 32.8282 27.5529 32.5146 27.8828L32.5166 27.8848C32.5109 27.891 32.5039 27.8962 32.498 27.9023C32.4939 27.9066 32.4906 27.9118 32.4863 27.916L32.4854 27.915C32.174 28.2383 31.7633 28.4199 31.3047 28.4199C31.1906 28.4199 31.083 28.4055 30.9854 28.3877V28.3896C28.9249 28.054 27.0044 27.8228 25.2227 27.6963H25.2148C23.433 27.5575 21.7541 27.4883 20.1777 27.4883C18.788 27.4883 17.4828 27.5227 16.2617 27.5918C15.0287 27.6616 13.8973 27.7433 12.8672 27.8359C11.8336 27.9288 10.9082 28.0272 10.0908 28.1309C9.26446 28.2472 8.55968 28.3461 7.97656 28.4277L7.96973 28.4287C7.81285 28.4496 7.64878 28.4757 7.47754 28.5078C7.27403 28.546 7.07436 28.5786 6.87988 28.6045C6.69848 28.6287 6.52478 28.6469 6.35938 28.6602C6.21547 28.6824 6.06462 28.7012 5.92188 28.7012C5.46008 28.7012 5.02083 28.5749 4.63184 28.3174C4.39081 28.1651 4.21249 27.9711 4.08398 27.7549L4.03809 27.7627L4.06738 27.7275C3.90742 27.4461 3.83203 27.1279 3.83203 26.8047C3.83203 26.4955 3.8985 26.1997 4.00879 25.9238L4.01953 25.8975L4.03125 25.8721C4.17293 25.5685 4.38534 25.2982 4.62012 25.0586C5.00365 24.6379 5.48974 24.1466 6.07324 23.5869L6.55957 23.1289C7.08035 22.6463 7.70394 22.0905 8.42871 21.4629L9.35547 20.6699C9.69147 20.387 10.0556 20.084 10.4482 19.7617C11.2356 19.1036 12.0931 18.3929 13.0205 17.6299L13.0254 17.626C13.9642 16.8632 14.9497 16.0717 15.9814 15.251C17.0138 14.418 18.0576 13.5848 19.1133 12.752C20.1671 11.9089 21.2037 11.0835 22.2227 10.2754C23.2453 9.45256 24.2157 8.68187 25.1338 7.96387C26.0154 7.2744 26.8207 6.64481 27.5498 6.0752C27.1062 6.02525 26.6604 5.97215 26.2129 5.91113L26.2021 5.90918C24.9147 5.7202 23.6443 5.5136 22.3916 5.28906C21.1438 5.06541 19.925 4.83519 18.7354 4.59961C17.5582 4.36651 16.4403 4.15779 15.3818 3.97168L15.3691 3.96875C14.3309 3.77263 13.3662 3.61821 12.4746 3.50391L12.4619 3.50195C11.5807 3.37768 10.8204 3.31836 10.1758 3.31836C9.15631 3.31836 8.21689 3.44315 7.35254 3.68555C6.49916 3.92815 5.77318 4.26944 5.16211 4.7002L5.16113 4.69922C4.56841 5.12526 4.11385 5.62548 3.78027 6.19727C3.47602 6.73844 3.31836 7.34266 3.31836 8.03125C3.31836 8.50126 3.39787 8.9377 3.55273 9.34766C3.70076 9.73948 3.92001 10.0794 4.21484 10.376C4.51839 10.6698 4.8965 10.9151 5.36523 11.1045C5.82584 11.2748 6.39749 11.373 7.09961 11.373V12.373C6.30273 12.373 5.60547 12.2617 5.00781 12.0391C4.42188 11.8047 3.92383 11.4883 3.51367 11.0898C3.11523 10.6914 2.81641 10.2285 2.61719 9.70117C2.41797 9.17383 2.31836 8.61719 2.31836 8.03125Z" fill="black"/>
</svg>
