<svg width="39" height="30" viewBox="0 0 39 30" fill="none" xmlns="http://www.w3.org/2000/svg">
<path d="M25.0645 16.7148C25.5215 17.0195 25.9082 17.377 26.2246 17.7871C26.541 18.1973 26.8047 18.6309 27.0156 19.0879C27.2266 19.5449 27.3906 20.0137 27.5078 20.4941C27.625 20.9746 27.7129 21.4434 27.7715 21.9004C27.8418 22.3457 27.8887 22.7734 27.9121 23.1836C27.9355 23.582 27.9531 23.9277 27.9648 24.2207C27.9883 24.9238 28.0586 25.5508 28.1758 26.1016C28.3047 26.6406 28.498 27.1035 28.7559 27.4902C29.0254 27.8652 29.3652 28.1523 29.7754 28.3516C30.1973 28.5508 30.7188 28.6504 31.3398 28.6504C32.043 28.6504 32.6816 28.5098 33.2559 28.2285C33.8418 27.9473 34.3633 27.5957 34.8203 27.1738C35.2891 26.7402 35.6992 26.2715 36.0508 25.7676C36.4023 25.2637 36.6953 24.7949 36.9297 24.3613C37.1641 23.916 37.3398 23.541 37.457 23.2363C37.5859 22.9199 37.6562 22.7383 37.668 22.6914C37.6914 22.5977 37.7031 22.5215 37.7031 22.4629C37.7031 22.2871 37.6387 22.1348 37.5098 22.0059C37.3926 21.8652 37.2344 21.7949 37.0352 21.7949C36.7422 21.7949 36.5371 21.9414 36.4199 22.2344C36.4199 22.2461 36.3672 22.3809 36.2617 22.6387C36.168 22.8848 36.0273 23.2012 35.8398 23.5879C35.6523 23.9629 35.418 24.373 35.1367 24.8184C34.8672 25.252 34.5508 25.6562 34.1875 26.0312C33.8359 26.4062 33.4375 26.7227 32.9922 26.9805C32.5469 27.2266 32.0605 27.3496 31.5332 27.3496V26.3496C31.8932 26.3496 32.2083 26.2676 32.4971 26.1104C32.8552 25.9022 33.1751 25.6494 33.458 25.3477L33.4697 25.3359C33.7846 25.0109 34.056 24.6618 34.2871 24.29L34.291 24.2842C34.5588 23.8602 34.7759 23.4795 34.9453 23.1406C35.1241 22.7714 35.2489 22.4875 35.3271 22.2822L35.332 22.2715L35.3359 22.2598C35.3705 22.1753 35.3981 22.1062 35.4199 22.0518V22.042L35.4912 21.8633C35.603 21.5838 35.7869 21.3002 36.0801 21.0908C36.3786 20.8776 36.7152 20.7949 37.0352 20.7949C37.4732 20.7949 37.8961 20.9557 38.2158 21.2988H38.2168C38.2382 21.3203 38.2582 21.3429 38.2783 21.3652H38.2773C38.5477 21.6646 38.7031 22.0422 38.7031 22.4629C38.7031 22.6387 38.6699 22.8047 38.6377 22.9336C38.6133 23.0311 38.5657 23.1549 38.5391 23.2236C38.5023 23.3187 38.4514 23.4429 38.3896 23.5947C38.2531 23.9499 38.0584 24.3636 37.8145 24.8271L37.8096 24.8369C37.5534 25.3108 37.2393 25.8121 36.8711 26.3398C36.5753 26.7638 36.2435 27.1638 35.877 27.54L35.499 27.9082C34.9673 28.399 34.3634 28.8041 33.6943 29.126L33.6953 29.127C32.9711 29.4816 32.1798 29.6504 31.3398 29.6504C30.6178 29.6504 29.9405 29.5353 29.3486 29.2559L29.3389 29.251C28.7774 28.9783 28.3085 28.5822 27.9434 28.0742L27.9238 28.0449C27.5893 27.5431 27.3543 26.9663 27.2031 26.334L27.2002 26.3223L27.1973 26.3096C27.0657 25.6911 26.991 25.0061 26.9658 24.2607L26.9141 23.2422V23.2402C26.8927 22.8664 26.8498 22.472 26.7842 22.0566L26.7812 22.042L26.7793 22.0273C26.7258 21.61 26.6451 21.1781 26.5361 20.7314C26.4345 20.3147 26.2918 19.9064 26.1074 19.5068C25.9288 19.1199 25.7045 18.7499 25.4326 18.3975C25.2728 18.1904 25.0858 18.0006 24.874 17.8232C24.0822 18.0672 23.2679 18.2684 22.4297 18.4199L22.4199 18.4209C21.715 18.5412 20.9942 18.6215 20.2578 18.6641C20.2309 20.0127 20.0804 21.2964 19.7988 22.5127L19.7979 22.5117C19.4921 23.8716 18.9842 25.0868 18.2598 26.1406L18.2559 26.1455C17.5168 27.2071 16.5597 28.0419 15.3984 28.6426L15.3975 28.6416C14.2021 29.2714 12.7938 29.5625 11.2129 29.5625C10.3937 29.5625 9.58259 29.4496 8.78223 29.2266V29.2256C8.008 29.0182 7.27396 28.7271 6.58398 28.3496L6.57715 28.3457C5.90076 27.9685 5.28439 27.5232 4.73145 27.0098L4.72266 27.002L4.71387 26.9932C4.16552 26.4582 3.71782 25.8706 3.38281 25.2285V25.2275C3.24636 24.9832 3.18164 24.7172 3.18164 24.4492C3.18164 24.0201 3.34401 23.6374 3.61719 23.3369L3.62012 23.334C3.94771 22.9766 4.38412 22.7988 4.84961 22.7988C5.38672 22.7988 5.85487 23.0291 6.16992 23.4434L6.29492 23.6318L6.30078 23.6416C6.50558 24.0046 6.77494 24.3482 7.11719 24.6709C7.46382 24.9977 7.85178 25.2814 8.28223 25.5225C8.72598 25.7529 9.19636 25.9343 9.69434 26.0664H9.69336C10.1968 26.1969 10.7027 26.2617 11.2129 26.2617V27.2617C10.6152 27.2617 10.0234 27.1855 9.4375 27.0332C8.86328 26.8809 8.31836 26.6699 7.80273 26.4004C7.29883 26.1191 6.8418 25.7852 6.43164 25.3984C6.02148 25.0117 5.6875 24.5898 5.42969 24.1328C5.30078 23.9102 5.10742 23.7988 4.84961 23.7988C4.65039 23.7988 4.48633 23.8691 4.35742 24.0098C4.24023 24.1387 4.18164 24.2852 4.18164 24.4492C4.18164 24.5664 4.21094 24.6719 4.26953 24.7656C4.55078 25.3047 4.93164 25.8086 5.41211 26.2773C5.9043 26.7344 6.45508 27.1328 7.06445 27.4727C7.68555 27.8125 8.34766 28.0762 9.05078 28.2637C9.76562 28.4629 10.4863 28.5625 11.2129 28.5625C12.6777 28.5625 13.9199 28.293 14.9395 27.7539C15.959 27.2266 16.791 26.5 17.4355 25.5742C18.0801 24.6367 18.543 23.541 18.8242 22.2871C19.1172 21.0215 19.2637 19.668 19.2637 18.2266V17.6992C20.2949 17.6875 21.291 17.5996 22.252 17.4355C23.2246 17.2598 24.1621 17.0195 25.0645 16.7148ZM31.8496 8.61133C31.8496 7.41602 31.5566 6.34961 30.9707 5.41211C30.3848 4.46289 29.5645 3.66602 28.5098 3.02148C27.4551 2.36523 26.1953 1.86719 24.7305 1.52734C23.2773 1.17578 21.6777 1 19.9316 1C18.2207 1 16.5625 1.14062 14.957 1.42188C13.3516 1.70312 11.8457 2.10156 10.4395 2.61719C9.04492 3.13281 7.76758 3.75391 6.60742 4.48047C5.44727 5.19531 4.45117 5.99805 3.61914 6.88867C2.78711 7.7793 2.14258 8.74023 1.68555 9.77148C1.22852 10.791 1 11.8574 1 12.9707C1 13.9785 1.17578 14.8809 1.52734 15.6777C1.89062 16.4629 2.37695 17.1309 2.98633 17.6816C3.5957 18.2324 4.29883 18.6543 5.0957 18.9473C5.9043 19.2402 6.75391 19.3867 7.64453 19.3867C8.60547 19.3867 9.45508 19.2812 10.1934 19.0703C10.9434 18.8594 11.5762 18.625 12.0918 18.3672C12.6074 18.1094 13 17.8691 13.2695 17.6465C13.5508 17.4121 13.7031 17.2832 13.7266 17.2598C13.8555 17.1426 13.9199 16.9902 13.9199 16.8027C13.9199 16.6152 13.8555 16.4629 13.7266 16.3457C13.5977 16.2168 13.4453 16.1523 13.2695 16.1523C13.1523 16.1523 13.041 16.1934 12.9355 16.2754C12.8301 16.3457 12.7363 16.4102 12.6543 16.4688C12.6309 16.4922 12.5078 16.5918 12.2852 16.7676C12.0742 16.9316 11.7578 17.1133 11.3359 17.3125C10.9141 17.5 10.3926 17.6758 9.77148 17.8398C9.15039 18.0039 8.42969 18.0859 7.60938 18.0859V17.0859C8.36579 17.0859 8.99724 17.0099 9.51562 16.873C10.1009 16.7185 10.567 16.559 10.9248 16.4004C11.306 16.2195 11.5396 16.0787 11.665 15.9824C11.775 15.8956 11.8582 15.8302 11.915 15.7842C11.9394 15.7644 11.9569 15.7492 11.9688 15.7393L12.0059 15.7031L12.0732 15.6553C12.1659 15.5891 12.2686 15.5182 12.3809 15.4434C12.6261 15.2689 12.9271 15.1523 13.2695 15.1523C13.7046 15.1523 14.0935 15.3186 14.3975 15.6064L14.3994 15.6055C14.4062 15.6117 14.4123 15.6187 14.4189 15.625C14.4237 15.6297 14.4289 15.6339 14.4336 15.6387H14.4326C14.7637 15.9572 14.9199 16.3722 14.9199 16.8027C14.9199 17.2331 14.7633 17.6474 14.4326 17.9658L14.4336 17.9668C14.4303 17.9701 14.4259 17.9728 14.4219 17.9766C14.4141 17.9839 14.4074 17.9927 14.3994 18L14.3975 17.998C14.3087 18.0791 14.1255 18.2356 13.9102 18.415L13.9062 18.417C13.5531 18.7088 13.0848 18.9888 12.5391 19.2617C11.9519 19.5553 11.2567 19.8089 10.4668 20.0312L10.4678 20.0322C9.62113 20.2741 8.67599 20.3867 7.64453 20.3867C6.64193 20.3867 5.67656 20.2216 4.75488 19.8877L4.75098 19.8857C3.83814 19.5501 3.02292 19.0633 2.31543 18.4238C1.60096 17.7781 1.03685 16.9983 0.620117 16.0977L0.616211 16.0898L0.612305 16.0811C0.196596 15.1387 0 14.0957 0 12.9707C0 11.7159 0.258946 10.51 0.773438 9.3623C1.2791 8.22264 1.98764 7.17054 2.88867 6.20605C3.78667 5.24484 4.85167 4.38801 6.07617 3.63281C7.29911 2.86693 8.63946 2.21705 10.0928 1.67969L10.0947 1.67871C11.5613 1.14097 13.1254 0.727128 14.7842 0.436523C16.4494 0.144811 18.1657 0 19.9316 0C21.74 0 23.4162 0.182401 24.9551 0.553711L24.9561 0.552734C26.5027 0.911554 27.8668 1.44538 29.0303 2.16797C30.2025 2.88434 31.1415 3.78728 31.8184 4.88184C32.5117 5.99117 32.8496 7.24442 32.8496 8.61133C32.8496 10.3982 32.3284 12.0333 31.2969 13.4902L31.2979 13.4912C30.5037 14.6257 29.432 15.5853 28.1133 16.3857C28.4129 16.7647 28.6722 17.1724 28.8887 17.6094L29.0371 17.9092C29.373 18.6092 29.6286 19.3244 29.7998 20.0547H29.7988C29.9967 20.8493 30.1247 21.6182 30.1758 22.3594H30.1748C30.2037 22.6959 30.2294 23.0068 30.25 23.292L30.2998 24.082V24.0977C30.3216 24.7193 30.3755 25.1898 30.4482 25.5273C30.5292 25.8391 30.619 26.0207 30.6875 26.1182C30.7586 26.2047 30.8235 26.2491 30.8838 26.2754C31.0326 26.3172 31.2434 26.3496 31.5332 26.3496V27.3496C31.1582 27.3496 30.8359 27.3086 30.5664 27.2266C30.3086 27.1328 30.0859 26.9688 29.8984 26.7344C29.7227 26.5 29.582 26.1777 29.4766 25.7676C29.3828 25.3457 29.3242 24.8008 29.3008 24.1328C29.2773 23.6758 29.2363 23.1074 29.1777 22.4277C29.1309 21.748 29.0137 21.0332 28.8262 20.2832C28.6504 19.5332 28.375 18.7949 28 18.0684C27.6367 17.3301 27.1328 16.6855 26.4883 16.1348C28.2461 15.2793 29.5762 14.207 30.4785 12.918C31.3926 11.6289 31.8496 10.1934 31.8496 8.61133ZM20.7402 15.4316C21.0801 15.4316 21.3789 15.4492 21.6367 15.4844C21.9062 15.5078 22.1465 15.543 22.3574 15.5898C22.5801 15.625 22.7852 15.6719 22.9727 15.7305C23.1602 15.7891 23.3535 15.8477 23.5527 15.9062C22.9082 16.0703 22.2051 16.1934 21.4434 16.2754C20.6934 16.3574 19.9609 16.3984 19.2461 16.3984V15.5371C19.6328 15.4668 20.1309 15.4316 20.7402 15.4316ZM22.5684 6.76562C22.5684 6.56641 22.498 6.4082 22.3574 6.29102C22.2285 6.16211 22.0762 6.09766 21.9004 6.09766C21.7832 6.09766 21.6836 6.12109 21.6016 6.16797C21.5781 6.17969 21.4844 6.23828 21.3203 6.34375C21.1562 6.44922 20.9512 6.61914 20.7051 6.85352C20.459 7.07617 20.1953 7.36328 19.9141 7.71484C19.6328 8.06641 19.3574 8.49414 19.0879 8.99805C18.8301 9.50195 18.6016 10.0879 18.4023 10.7559C18.2148 11.4238 18.0859 12.1797 18.0156 13.0234C17.9922 13.2812 17.9746 13.5449 17.9629 13.8145C17.9512 14.0723 17.9453 14.3359 17.9453 14.6055C17.5352 14.7695 17.2188 14.9805 16.9961 15.2383C16.7734 15.4961 16.6621 15.7949 16.6621 16.1348C16.6621 16.4746 16.7793 16.7617 17.0137 16.9961C17.248 17.2305 17.5586 17.4121 17.9453 17.541V18.2266C17.9453 19.5977 17.8223 20.8398 17.5762 21.9531C17.3301 23.0547 16.9375 24.0039 16.3984 24.8008C15.8594 25.5859 15.1621 26.1953 14.3066 26.6289C13.4512 27.0508 12.4199 27.2617 11.2129 27.2617V26.2617C12.3035 26.2617 13.1738 26.0713 13.8594 25.7344C14.5642 25.3762 15.1317 24.8789 15.5742 24.2344C16.0296 23.5593 16.3768 22.7334 16.5996 21.7373L16.6797 21.3447C16.8548 20.4132 16.9453 19.3752 16.9453 18.2266V18.1855C16.7127 18.0524 16.4973 17.8938 16.3066 17.7031C15.8795 17.276 15.6621 16.7323 15.6621 16.1348C15.6621 15.5544 15.8602 15.0239 16.2393 14.585C16.4445 14.3473 16.6877 14.15 16.9561 13.9854C16.9585 13.9131 16.9606 13.8411 16.9639 13.7695C16.9762 13.4854 16.9947 13.2063 17.0195 12.9326C17.0942 12.0418 17.2321 11.224 17.4395 10.4854L17.4414 10.4775L17.4443 10.4697C17.6571 9.75644 17.9063 9.11178 18.1973 8.54297L18.2021 8.53418L18.2061 8.52637C18.4972 7.98213 18.8047 7.49997 19.1328 7.08984C19.4302 6.71805 19.7247 6.39449 20.0156 6.12891L20.2119 5.94727C20.4069 5.77234 20.5977 5.61974 20.7793 5.50293C20.8877 5.43322 21.0161 5.35127 21.1055 5.30078V5.2998C21.3709 5.14814 21.6506 5.09766 21.9004 5.09766C22.3206 5.09766 22.6978 5.25266 22.9971 5.52246C23.0085 5.53196 23.0192 5.54302 23.0303 5.55273C23.0414 5.56334 23.0535 5.57305 23.0645 5.58398H23.0635C23.4073 5.90377 23.5684 6.32715 23.5684 6.76562C23.5684 7.35843 23.2859 7.86408 22.7871 8.17578L22.7891 8.17773C22.7901 8.17701 22.7819 8.18272 22.7568 8.2002C22.7344 8.2158 22.704 8.23724 22.665 8.26465C22.5889 8.31826 22.4827 8.39293 22.3467 8.48926C22.1928 8.60497 21.9652 8.83592 21.668 9.23926C21.4042 9.59726 21.125 10.1105 20.8389 10.8037L20.8359 10.8086C20.5876 11.4007 20.411 12.1801 20.333 13.1729C20.4383 13.1691 20.5447 13.166 20.6523 13.166C21.5708 13.166 22.4635 13.2681 23.3281 13.4746C24.0223 13.6404 24.6775 13.867 25.292 14.1553C26.6649 13.5496 27.6782 12.7977 28.3799 11.9229C29.1464 10.9671 29.5137 9.93206 29.5137 8.78711C29.5137 7.93125 29.3022 7.20894 28.9004 6.58789L28.8975 6.58301C28.4776 5.92456 27.8733 5.34969 27.0537 4.86816L27.0488 4.86523C26.2321 4.3794 25.2223 3.9909 24.001 3.71582H23.999C22.7937 3.44189 21.4514 3.30078 19.9668 3.30078C18.6714 3.30078 17.3442 3.40248 15.9844 3.60645L15.9775 3.60742C14.6355 3.79914 13.3347 4.0909 12.0752 4.48438C10.8299 4.87709 9.66225 5.36494 8.57031 5.94434C7.49078 6.51717 6.56202 7.17046 5.77734 7.90137L5.77148 7.90625C4.99891 8.61533 4.40121 9.39944 3.9668 10.2578C3.5485 11.0845 3.33594 11.9839 3.33594 12.9707C3.33594 13.6956 3.46072 14.2923 3.68262 14.7832L3.77637 14.9736C4.0005 15.4044 4.27605 15.7614 4.59961 16.0547C4.99115 16.3875 5.44016 16.6442 5.9541 16.8252C6.47688 16.9977 7.02693 17.0859 7.60938 17.0859V18.0859C6.91797 18.0859 6.25586 17.9805 5.62305 17.7695C4.99023 17.5469 4.42773 17.2246 3.93555 16.8027C3.45508 16.3691 3.06836 15.8359 2.77539 15.2031C2.48242 14.5586 2.33594 13.8145 2.33594 12.9707C2.33594 11.834 2.58203 10.7793 3.07422 9.80664C3.56641 8.83398 4.24023 7.95508 5.0957 7.16992C5.95117 6.37305 6.95312 5.66992 8.10156 5.06055C9.25 4.45117 10.4746 3.94141 11.7754 3.53125C13.0879 3.12109 14.4414 2.81641 15.8359 2.61719C17.2422 2.40625 18.6191 2.30078 19.9668 2.30078C21.5137 2.30078 22.9316 2.44727 24.2207 2.74023C25.5215 3.0332 26.6348 3.45508 27.5605 4.00586C28.498 4.55664 29.2246 5.23633 29.7402 6.04492C30.2559 6.8418 30.5137 7.75586 30.5137 8.78711C30.5137 10.1699 30.0625 11.4238 29.1602 12.5488C28.2578 13.6738 26.957 14.5762 25.2578 15.2559C24.6016 14.9043 23.8809 14.6348 23.0957 14.4473C22.3105 14.2598 21.4961 14.166 20.6523 14.166C20.3945 14.166 20.1484 14.1777 19.9141 14.2012C19.6914 14.2129 19.4746 14.2305 19.2637 14.2539C19.2754 14.0664 19.2812 13.8789 19.2812 13.6914C19.293 13.5039 19.3105 13.3164 19.334 13.1289C19.416 12.0508 19.6094 11.1484 19.9141 10.4219C20.2188 9.68359 20.5352 9.0918 20.8633 8.64648C21.1914 8.20117 21.4902 7.87891 21.7598 7.67969C22.041 7.48047 22.1992 7.36914 22.2344 7.3457C22.457 7.2168 22.5684 7.02344 22.5684 6.76562Z" fill="black"/>
</svg>
