<svg width="17" height="26" viewBox="0 0 17 26" fill="none" xmlns="http://www.w3.org/2000/svg">
<path d="M11.5117 5.28906C11.5117 4.65625 11.4707 4.07617 11.3887 3.54883C11.3066 3.02148 11.1777 2.57031 11.002 2.19531C10.8379 1.82031 10.6211 1.52734 10.3516 1.31641C10.082 1.10547 9.75391 1 9.36719 1C8.93359 1 8.54688 1.15234 8.20703 1.45703C7.86719 1.75 7.56836 2.1543 7.31055 2.66992C7.06445 3.18555 6.85352 3.7832 6.67773 4.46289C6.50195 5.14258 6.36133 5.86328 6.25586 6.625C6.15039 7.375 6.07422 8.14844 6.02734 8.94531C5.98047 9.73047 5.95703 10.4863 5.95703 11.2129C5.95703 12.877 6.03906 14.3828 6.20312 15.7305C6.36719 17.0781 6.54883 18.2676 6.74805 19.2988C6.39648 20.1777 6.07422 20.8867 5.78125 21.4258C5.5 21.9648 5.23633 22.3809 4.99023 22.6738C4.75586 22.9668 4.5332 23.166 4.32227 23.2715C4.11133 23.3652 3.91211 23.4121 3.72461 23.4121V22.4121C3.74215 22.4121 3.79332 22.4059 3.8877 22.3672C3.9304 22.3408 4.04076 22.2591 4.20898 22.0488L4.2168 22.04L4.22461 22.0303C4.40492 21.8156 4.62981 21.4703 4.89453 20.9629L4.89844 20.9561L4.90234 20.9482C5.14171 20.5078 5.40988 19.9235 5.71094 19.1885C5.66232 18.9253 5.61469 18.6532 5.56836 18.3721C5.38985 18.416 5.1909 18.4824 4.97168 18.5791C4.69764 18.7001 4.42933 18.8832 4.16797 19.1445C3.94781 19.3647 3.73928 19.6704 3.55762 20.0879C3.4091 20.4538 3.31836 20.9321 3.31836 21.5488C3.31836 22.005 3.40947 22.2298 3.47852 22.3311C3.51089 22.3723 3.55617 22.4121 3.72461 22.4121V23.4121C3.26758 23.4121 2.91602 23.248 2.66992 22.9199C2.43555 22.5918 2.31836 22.1348 2.31836 21.5488C2.31836 20.834 2.42383 20.2188 2.63477 19.7031C2.85742 19.1875 3.13281 18.7656 3.46094 18.4375C3.80078 18.0977 4.16992 17.8398 4.56836 17.6641C4.9668 17.4883 5.3418 17.377 5.69336 17.3301C5.86914 17.3066 6.00977 17.2305 6.11523 17.1016C6.2207 16.9727 6.27344 16.8262 6.27344 16.6621C6.27344 16.4746 6.20898 16.3223 6.08008 16.2051C5.95117 16.0762 5.79883 16.0117 5.62305 16.0117C5.08398 16.0117 4.53906 16.1465 3.98828 16.416C3.44922 16.6855 2.95703 17.0664 2.51172 17.5586C2.06641 18.0391 1.70312 18.6191 1.42188 19.2988C1.14062 19.9785 1 20.7227 1 21.5312C1 22.1172 1.07617 22.6152 1.22852 23.0254C1.38086 23.4238 1.58008 23.752 1.82617 24.0098C2.07227 24.2676 2.35938 24.4492 2.6875 24.5547C3.01562 24.6719 3.35547 24.7305 3.70703 24.7305C4.375 24.7305 4.99609 24.4609 5.57031 23.9219C6.14453 23.3828 6.71289 22.5156 7.27539 21.3203C7.68555 22.5742 8.17188 23.4766 8.73438 24.0273C9.29688 24.5664 9.9707 24.8359 10.7559 24.8359C11.1777 24.8359 11.5762 24.7363 11.9512 24.5371C12.3379 24.3262 12.7012 24.0625 13.041 23.7461C13.3809 23.4297 13.6914 23.0723 13.9727 22.6738C14.2539 22.2754 14.5059 21.8887 14.7285 21.5137C14.9629 21.127 15.1562 20.7695 15.3086 20.4414C15.4727 20.1016 15.5957 19.832 15.6777 19.6328C15.7129 19.5625 15.7305 19.4805 15.7305 19.3867C15.7305 19.2227 15.666 19.0703 15.5371 18.9297C15.4082 18.7891 15.25 18.7188 15.0625 18.7188C14.7695 18.7188 14.5645 18.8594 14.4473 19.1406C14.2832 19.5156 14.0723 19.9551 13.8145 20.459C13.5566 20.9629 13.2578 21.4434 12.918 21.9004C12.5898 22.3457 12.2324 22.7266 11.8457 23.043C11.459 23.3477 11.0547 23.5 10.6328 23.5V22.5C10.7925 22.5 10.9817 22.4475 11.2197 22.2617C11.5325 22.0046 11.8318 21.6896 12.1133 21.3076L12.1152 21.3037C12.422 20.8911 12.6915 20.4579 12.9238 20.0039C13.0498 19.7577 13.1636 19.529 13.2646 19.3184L13.5312 18.7402C13.6478 18.4673 13.8344 18.197 14.123 17.999C14.4201 17.7954 14.751 17.7188 15.0625 17.7188C15.4768 17.7188 15.853 17.866 16.1514 18.1328L16.2744 18.2539L16.3711 18.3682C16.5869 18.6444 16.7305 18.989 16.7305 19.3867C16.7305 19.5854 16.6937 19.8003 16.6006 20.0127L16.6025 20.0137C16.5107 20.2366 16.3789 20.5211 16.2148 20.8613L16.2158 20.8623C16.0448 21.2308 15.8329 21.6215 15.584 22.0322L15.583 22.0312C15.3466 22.4289 15.0829 22.8362 14.79 23.251C14.4712 23.7027 14.1152 24.112 13.7227 24.4775C13.325 24.8478 12.8936 25.162 12.4297 25.415L12.4199 25.4199C11.9015 25.6953 11.3424 25.8359 10.7559 25.8359C9.71509 25.8359 8.79227 25.468 8.04199 24.749L8.03516 24.7422C7.70726 24.4211 7.41776 24.0249 7.15723 23.5684C6.86884 23.9897 6.57074 24.3548 6.25488 24.6514C5.53069 25.3312 4.67395 25.7305 3.70703 25.7305C3.25251 25.7305 2.80966 25.6539 2.38184 25.5049V25.5068C1.88943 25.3486 1.45969 25.0743 1.10254 24.7002C0.748795 24.3296 0.485493 23.8811 0.294922 23.3828L0.291016 23.374C0.0858902 22.8218 0 22.1982 0 21.5312C0 20.6045 0.161864 19.7285 0.498047 18.916C0.819113 18.1402 1.24317 17.4563 1.77832 16.8789C2.29659 16.308 2.88348 15.8503 3.54102 15.5215L3.54883 15.5176C4.06015 15.2674 4.58667 15.1051 5.12402 15.042C5.01275 13.8643 4.95703 12.5875 4.95703 11.2129C4.95703 10.4649 4.98133 9.68913 5.0293 8.88574C5.07768 8.06366 5.15624 7.26319 5.26562 6.48535C5.37583 5.69006 5.52391 4.93235 5.70996 4.21289C5.89831 3.48461 6.12907 2.8241 6.4082 2.23926L6.41211 2.23047L6.41602 2.22266C6.71686 1.62096 7.08952 1.09939 7.55371 0.699219V0.700195C8.06372 0.248428 8.67969 0 9.36719 0C9.94676 0 10.4997 0.162957 10.9678 0.529297C11.384 0.855078 11.6894 1.28356 11.9062 1.77051H11.9072C12.1329 2.25197 12.2843 2.79996 12.377 3.39551C12.4681 3.9819 12.5117 4.6141 12.5117 5.28906C12.5117 6.70622 12.3894 8.12245 12.1455 9.53711C11.9062 10.9253 11.6057 12.257 11.2451 13.5322L11.2461 13.5332C10.8999 14.7987 10.5276 15.975 10.1299 17.0596C9.78847 17.9907 9.47102 18.8127 9.18066 19.5254C9.44363 20.6766 9.74057 21.4689 10.043 21.9609C10.3676 22.489 10.5789 22.5 10.6328 22.5V23.5C9.54297 23.5 8.71094 22.1465 8.13672 19.4395C8.45312 18.6777 8.80469 17.7695 9.19141 16.7148C9.57812 15.6602 9.94141 14.5117 10.2812 13.2695C10.6328 12.0273 10.9258 10.7266 11.1602 9.36719C11.3945 8.00781 11.5117 6.64844 11.5117 5.28906ZM9.19336 5.27148C9.19336 5.0048 9.18226 4.71115 9.16016 4.39062L9.15918 4.37402V4.35645C9.15817 4.32709 9.15485 4.29819 9.15332 4.26953C9.05412 4.5777 8.95866 4.93605 8.86719 5.34766L8.86621 5.35059C8.68871 6.13824 8.54182 7.04967 8.42773 8.08789C8.32628 9.10574 8.27539 10.1356 8.27539 11.1777C8.27539 11.4049 8.27814 11.6322 8.28223 11.8594C8.34453 11.6076 8.40509 11.3548 8.46191 11.1006L8.46387 11.0889C8.69032 10.1264 8.86577 9.15863 8.99023 8.18555L8.99219 8.17578C9.12669 7.20061 9.19336 6.23259 9.19336 5.27148ZM10.1934 5.27148C10.1934 6.2793 10.123 7.29297 9.98242 8.3125C9.85352 9.32031 9.67188 10.3223 9.4375 11.3184C9.21484 12.3145 8.95117 13.293 8.64648 14.2539C8.3418 15.2031 8.01953 16.1289 7.67969 17.0312C7.57422 16.2227 7.48047 15.3027 7.39844 14.2715C7.31641 13.2402 7.27539 12.209 7.27539 11.1777C7.27539 10.0996 7.32812 9.0332 7.43359 7.97852C7.55078 6.91211 7.70312 5.96289 7.89062 5.13086C8.07812 4.28711 8.29492 3.60742 8.54102 3.0918C8.79883 2.57617 9.07422 2.31836 9.36719 2.31836C9.54297 2.31836 9.68359 2.41797 9.78906 2.61719C9.89453 2.81641 9.97656 3.06836 10.0352 3.37305C10.1055 3.66602 10.1465 3.98242 10.1582 4.32227C10.1816 4.66211 10.1934 4.97852 10.1934 5.27148Z" fill="black"/>
</svg>
