<svg width="32" height="27" viewBox="0 0 32 27" fill="none" xmlns="http://www.w3.org/2000/svg">
<path d="M31.6934 3.46289C31.7168 3.55664 31.7285 3.63281 31.7285 3.69141C31.7285 3.92578 31.6406 4.10156 31.4648 4.21875C30.3281 5.09766 29.1152 6.03516 27.8262 7.03125C26.5488 8.01562 25.2422 9.03516 23.9062 10.0898C22.582 11.1328 21.2461 12.1875 19.8984 13.2539C18.5625 14.3086 17.2676 15.3457 16.0137 16.3652C14.7598 17.373 13.5645 18.3457 12.4277 19.2832C11.3027 20.2207 10.2832 21.082 9.36914 21.8672C8.45508 22.6406 7.66992 23.332 7.01367 23.9414C6.35742 24.5391 5.87695 25.0137 5.57227 25.3652C6.11133 25.2832 6.79102 25.1719 7.61133 25.0312C8.44336 24.8906 9.42773 24.7617 10.5645 24.6445C11.7012 24.5156 12.9844 24.4043 14.4141 24.3105C15.8555 24.2168 17.4492 24.1699 19.1953 24.1699C20.8359 24.1699 22.582 24.2402 24.4336 24.3809C26.2969 24.5098 28.2891 24.7441 30.4102 25.084C30.5742 25.1074 30.709 25.1777 30.8145 25.2949C30.9199 25.4121 30.9727 25.5527 30.9727 25.7168C30.9727 25.916 30.9082 26.0801 30.7793 26.209C30.6504 26.3496 30.4922 26.4199 30.3047 26.4199C30.2578 26.4199 30.2051 26.4141 30.1465 26.4023C28.0605 26.0625 26.1094 25.8281 24.293 25.6992C22.4883 25.5586 20.7832 25.4883 19.1777 25.4883C17.7715 25.4883 16.4473 25.5234 15.2051 25.5938C13.9629 25.6641 12.8203 25.7461 11.7773 25.8398C10.7344 25.9336 9.79688 26.0332 8.96484 26.1387C8.13281 26.2559 7.42383 26.3555 6.83789 26.4375C6.66211 26.4609 6.48047 26.4902 6.29297 26.5254C6.10547 26.5605 5.92383 26.5898 5.74805 26.6133C5.57227 26.6367 5.4082 26.6543 5.25586 26.666C5.11523 26.6895 5.00391 26.7012 4.92188 26.7012C4.64062 26.7012 4.38867 26.625 4.16602 26.4727C3.94336 26.332 3.83203 26.1094 3.83203 25.8047C3.83203 25.6406 3.86719 25.4707 3.9375 25.2949C4.01953 25.1191 4.16016 24.9316 4.35938 24.7324C4.72266 24.334 5.19141 23.8594 5.76562 23.3086C6.35156 22.7461 7.125 22.0488 8.08594 21.2168C8.63672 20.7363 9.30469 20.1738 10.0898 19.5293C10.875 18.873 11.7305 18.1641 12.6562 17.4023C13.5938 16.6406 14.5781 15.8496 15.6094 15.0293C16.6406 14.1973 17.6836 13.3652 18.7383 12.5332C19.793 11.6895 20.8301 10.8633 21.8496 10.0547C22.8691 9.23438 23.8359 8.4668 24.75 7.75195C25.6641 7.03711 26.4961 6.38672 27.2461 5.80078C28.0078 5.20312 28.6465 4.70508 29.1621 4.30664C27.9082 4.22461 26.6367 4.0957 25.3477 3.91992C24.0703 3.73242 22.8105 3.52734 21.5684 3.30469C20.3262 3.08203 19.1133 2.85352 17.9297 2.61914C16.7461 2.38477 15.6211 2.17383 14.5547 1.98633C13.5 1.78711 12.5156 1.62891 11.6016 1.51172C10.6875 1.38281 9.87891 1.31836 9.17578 1.31836C8.07422 1.31836 7.04297 1.45312 6.08203 1.72266C5.13281 1.99219 4.30078 2.37891 3.58594 2.88281C2.88281 3.38672 2.32617 3.99023 1.91602 4.69336C1.51758 5.39648 1.31836 6.17578 1.31836 7.03125C1.31836 7.61719 1.41797 8.17383 1.61719 8.70117C1.81641 9.22852 2.11523 9.69141 2.51367 10.0898C2.92383 10.4883 3.42188 10.8047 4.00781 11.0391C4.60547 11.2617 5.30273 11.373 6.09961 11.373C6.87305 11.373 7.63477 11.2441 8.38477 10.9863C9.13477 10.7285 9.83203 10.3477 10.4766 9.84375C10.6055 9.75 10.7402 9.70312 10.8809 9.70312C11.0566 9.70312 11.209 9.76758 11.3379 9.89648C11.4785 10.0137 11.5488 10.166 11.5488 10.3535C11.5488 10.5762 11.4668 10.752 11.3027 10.8809C10.541 11.4785 9.70898 11.9297 8.80664 12.2344C7.91602 12.5391 7.01367 12.6914 6.09961 12.6914C5.08008 12.6914 4.18945 12.5391 3.42773 12.2344C2.66602 11.918 2.02734 11.502 1.51172 10.9863C1.00781 10.4707 0.626953 9.87305 0.369141 9.19336C0.123047 8.50195 0 7.78125 0 7.03125C0 5.96484 0.234375 4.99805 0.703125 4.13086C1.18359 3.26367 1.83984 2.52539 2.67188 1.91602C3.50391 1.30664 4.47656 0.837891 5.58984 0.509766C6.71484 0.169922 7.92188 0 9.21094 0C10.043 0 10.9688 0.0703125 11.9883 0.210938C13.0078 0.351562 14.0918 0.527344 15.2402 0.738281C16.4004 0.949219 17.6074 1.18359 18.8613 1.44141C20.127 1.6875 21.416 1.92188 22.7285 2.14453C24.041 2.36719 25.3594 2.56055 26.6836 2.72461C28.0195 2.88867 29.3438 2.98828 30.6562 3.02344H31.043C31.1836 3.02344 31.3125 3.06445 31.4297 3.14648C31.5469 3.22852 31.6348 3.33398 31.6934 3.46289Z" fill="white"/>
</svg>
