<svg width="25" height="10" viewBox="0 0 25 10" fill="none" xmlns="http://www.w3.org/2000/svg">
<path d="M4.13086 7.52344C4.30664 7.17188 4.5293 6.73828 4.79883 6.22266C5.08008 5.69531 5.36719 5.16797 5.66016 4.64062C5.96484 4.11328 6.25781 3.61523 6.53906 3.14648C6.83203 2.67773 7.07812 2.32031 7.27734 2.07422C7.61719 1.66406 7.96875 1.37109 8.33203 1.19531C8.69531 1.01953 9.0293 0.931641 9.33398 0.931641C9.63867 0.931641 9.89648 0.996094 10.1074 1.125C10.3301 1.25391 10.5117 1.42969 10.6523 1.65234C10.793 1.86328 10.8984 2.11523 10.9688 2.4082C11.0391 2.68945 11.0742 2.99414 11.0742 3.32227C11.0742 3.50977 11.0625 3.75586 11.0391 4.06055C11.0273 4.36523 11.0098 4.69336 10.9863 5.04492C10.9746 5.39648 10.957 5.75977 10.9336 6.13477C10.9219 6.50977 10.9102 6.86133 10.8984 7.18945C11.0742 6.83789 11.2734 6.45117 11.4961 6.0293C11.7188 5.5957 11.9414 5.16797 12.1641 4.74609C12.3984 4.32422 12.6211 3.93164 12.832 3.56836C13.043 3.19336 13.2363 2.88867 13.4121 2.6543C13.916 1.96289 14.3848 1.5 14.8184 1.26562C15.2637 1.03125 15.6562 0.914062 15.9961 0.914062C16.3945 0.914062 16.7227 0.990234 16.9805 1.14258C17.2383 1.2832 17.4375 1.4707 17.5781 1.70508C17.7305 1.92773 17.8359 2.17969 17.8945 2.46094C17.9531 2.74219 17.9824 3.01172 17.9824 3.26953C17.9824 3.66797 17.9531 4.08398 17.8945 4.51758C17.8359 4.95117 17.8066 5.4668 17.8066 6.06445C17.8066 6.31055 17.8184 6.55664 17.8418 6.80273C17.8652 7.04883 17.9121 7.26562 17.9824 7.45312C18.0645 7.64062 18.1875 7.79297 18.3516 7.91016C18.5156 8.02734 18.7383 8.08594 19.0195 8.08594C19.3242 8.08594 19.623 8.00977 19.916 7.85742C20.209 7.69336 20.4902 7.48242 20.7598 7.22461C21.0293 6.9668 21.2812 6.67383 21.5156 6.3457C21.7617 6.01758 21.9844 5.68945 22.1836 5.36133C22.3828 5.0332 22.5586 4.72266 22.7109 4.42969C22.8633 4.125 22.9863 3.86719 23.0801 3.65625C23.1387 3.52734 23.2207 3.42773 23.3262 3.35742C23.4316 3.28711 23.5488 3.25195 23.6777 3.25195C23.877 3.25195 24.0352 3.32812 24.1523 3.48047C24.2812 3.62109 24.3457 3.77344 24.3457 3.9375C24.3457 4.01953 24.3281 4.10156 24.293 4.18359C24.2461 4.27734 24.1523 4.47656 24.0117 4.78125C23.8711 5.07422 23.6836 5.41406 23.4492 5.80078C23.2148 6.17578 22.9395 6.57422 22.623 6.99609C22.3184 7.41797 21.9785 7.81055 21.6035 8.17383C21.2285 8.52539 20.8242 8.81836 20.3906 9.05273C19.957 9.27539 19.5 9.38672 19.0195 9.38672C18.5039 9.38672 18.082 9.29297 17.7539 9.10547C17.4375 8.92969 17.1797 8.68945 16.9805 8.38477C16.793 8.08008 16.6641 7.72852 16.5938 7.33008C16.5234 6.93164 16.4883 6.51562 16.4883 6.08203C16.4883 5.50781 16.5176 4.98047 16.5762 4.5C16.6348 4.00781 16.6641 3.62695 16.6641 3.35742C16.6641 3.06445 16.6348 2.8418 16.5762 2.68945C16.5293 2.53711 16.4648 2.43164 16.3828 2.37305C16.3125 2.30273 16.2422 2.26758 16.1719 2.26758C16.1016 2.25586 16.0488 2.25 16.0137 2.25C15.7324 2.25 15.4336 2.4082 15.1172 2.72461C14.8125 3.0293 14.4961 3.43945 14.168 3.95508C13.8398 4.4707 13.5 5.05664 13.1484 5.71289C12.8086 6.36914 12.4629 7.03711 12.1113 7.7168C11.9121 8.0918 11.7422 8.40234 11.6016 8.64844C11.4727 8.89453 11.3438 9.08789 11.2148 9.22852C11.0977 9.36914 10.9805 9.46875 10.8633 9.52734C10.7461 9.58594 10.6172 9.61523 10.4766 9.61523C10.1719 9.61523 9.9375 9.50977 9.77344 9.29883C9.62109 9.08789 9.54492 8.8125 9.54492 8.47266C9.54492 8.29688 9.55078 8.0625 9.5625 7.76953C9.57422 7.47656 9.58594 7.1543 9.59766 6.80273C9.60938 6.45117 9.62695 6.08789 9.65039 5.71289C9.67383 5.33789 9.69141 4.98047 9.70312 4.64062C9.71484 4.28906 9.72656 3.97852 9.73828 3.70898C9.75 3.43945 9.75586 3.23438 9.75586 3.09375C9.75586 2.78906 9.70312 2.57227 9.59766 2.44336C9.49219 2.30273 9.36914 2.23242 9.22852 2.23242C9.09961 2.23242 8.95312 2.2793 8.78906 2.37305C8.63672 2.4668 8.45508 2.64844 8.24414 2.91797C8.08008 3.12891 7.86914 3.43945 7.61133 3.84961C7.36523 4.24805 7.10156 4.69336 6.82031 5.18555C6.53906 5.67773 6.25781 6.18164 5.97656 6.69727C5.70703 7.21289 5.47266 7.67578 5.27344 8.08594C5.02734 8.57812 4.78125 8.91211 4.53516 9.08789C4.28906 9.27539 4.04883 9.36914 3.81445 9.36914C3.47461 9.36914 3.22266 9.26953 3.05859 9.07031C2.89453 8.85938 2.8125 8.58398 2.8125 8.24414C2.8125 8.20898 2.81836 7.99805 2.83008 7.61133C2.85352 7.22461 2.87695 6.75586 2.90039 6.20508C2.92383 5.64258 2.94727 5.04492 2.9707 4.41211C3.00586 3.7793 3.03516 3.1875 3.05859 2.63672C3.07031 2.34375 3.05859 2.07422 3.02344 1.82812C2.98828 1.58203 2.94141 1.43555 2.88281 1.38867C2.78906 1.41211 2.60156 1.62891 2.32031 2.03906C2.05078 2.44922 1.70508 3.16406 1.2832 4.18359C1.22461 4.3125 1.13672 4.41211 1.01953 4.48242C0.902344 4.55273 0.779297 4.58789 0.650391 4.58789C0.451172 4.58789 0.292969 4.52344 0.175781 4.39453C0.0585938 4.25391 0 4.0957 0 3.91992C0 3.83789 0.0175781 3.75 0.0527344 3.65625C0.580078 2.40234 1.08398 1.48242 1.56445 0.896484C2.04492 0.298828 2.51367 0 2.9707 0C3.24023 0 3.46289 0.0644531 3.63867 0.193359C3.82617 0.310547 3.97266 0.46875 4.07812 0.667969C4.18359 0.855469 4.25977 1.07227 4.30664 1.31836C4.35352 1.56445 4.37695 1.80469 4.37695 2.03906C4.37695 3.08203 4.34766 4.03711 4.28906 4.9043C4.24219 5.77148 4.18945 6.64453 4.13086 7.52344Z" fill="white"/>
</svg>
