<svg width="15" height="26" viewBox="0 0 15 26" fill="none" xmlns="http://www.w3.org/2000/svg">
<path d="M1.33594 24.1348C1.52344 23.7363 1.74023 23.3086 1.98633 22.8516C2.23242 22.3828 2.49609 21.9082 2.77734 21.4277C3.05859 20.9355 3.35742 20.4492 3.67383 19.9688C3.99023 19.4883 4.31836 19.0371 4.6582 18.6152C4.99805 18.2051 5.33789 17.9121 5.67773 17.7363C6.0293 17.5488 6.35742 17.4551 6.66211 17.4551C6.9668 17.4551 7.23047 17.5195 7.45312 17.6484C7.6875 17.7656 7.875 17.9297 8.01562 18.1406C8.16797 18.3516 8.2793 18.5977 8.34961 18.8789C8.43164 19.1602 8.47266 19.4648 8.47266 19.793C8.47266 20.0625 8.44336 20.4258 8.38477 20.8828C8.33789 21.3281 8.31445 21.7969 8.31445 22.2891C8.31445 22.5703 8.32617 22.8516 8.34961 23.1328C8.38477 23.4023 8.4375 23.6484 8.50781 23.8711C8.58984 24.082 8.70703 24.2578 8.85938 24.3984C9.01172 24.5273 9.21094 24.5918 9.45703 24.5918C9.73828 24.5918 10.0195 24.5156 10.3008 24.3633C10.582 24.1992 10.8574 23.9883 11.127 23.7305C11.3965 23.4609 11.6543 23.168 11.9004 22.8516C12.1465 22.5234 12.3691 22.2012 12.5684 21.8848C12.7676 21.5566 12.9434 21.2461 13.0957 20.9531C13.248 20.6484 13.3711 20.3965 13.4648 20.1973C13.582 19.9277 13.7871 19.793 14.0801 19.793C14.2793 19.793 14.4375 19.8633 14.5547 20.0039C14.6719 20.1445 14.7305 20.2969 14.7305 20.4609C14.7305 20.5547 14.7129 20.6426 14.6777 20.7246C14.6309 20.8184 14.5371 21.0117 14.3965 21.3047C14.2676 21.5977 14.0859 21.9375 13.8516 22.3242C13.6289 22.7109 13.3652 23.1152 13.0605 23.5371C12.7559 23.959 12.416 24.3516 12.041 24.7148C11.6777 25.0664 11.2793 25.3594 10.8457 25.5938C10.4238 25.8164 9.97852 25.9277 9.50977 25.9277C8.9707 25.9277 8.53711 25.8164 8.20898 25.5938C7.88086 25.3594 7.62305 25.0664 7.43555 24.7148C7.25977 24.3633 7.13672 23.9707 7.06641 23.5371C7.00781 23.1035 6.97852 22.6816 6.97852 22.2715C6.97852 22.0605 6.98438 21.8379 6.99609 21.6035C7.01953 21.3574 7.04297 21.1172 7.06641 20.8828C7.08984 20.6484 7.10742 20.4316 7.11914 20.2324C7.14258 20.0215 7.1543 19.8457 7.1543 19.7051C7.1543 19.3418 7.10156 19.0957 6.99609 18.9668C6.90234 18.8379 6.79102 18.7734 6.66211 18.7734C6.47461 18.7734 6.25781 18.8848 6.01172 19.1074C5.77734 19.3184 5.52539 19.5996 5.25586 19.9512C4.99805 20.3027 4.73438 20.7012 4.46484 21.1465C4.20703 21.5801 3.95508 22.0137 3.70898 22.4473C3.46289 22.8809 3.24023 23.2969 3.04102 23.6953C2.8418 24.082 2.67773 24.4043 2.54883 24.6621C2.30273 25.1543 2.05078 25.4824 1.79297 25.6465C1.54688 25.8223 1.32422 25.9102 1.125 25.9102C0.761719 25.9102 0.480469 25.7695 0.28125 25.4883C0.09375 25.1953 0 24.8438 0 24.4336V23.3262C0 21.1113 0 19.002 0 16.998C0.0117188 14.9824 0.0410156 13.1133 0.0878906 11.3906C0.146484 9.65625 0.234375 8.0918 0.351562 6.69727C0.480469 5.29102 0.667969 4.0957 0.914062 3.11133C1.16016 2.11523 1.4707 1.34766 1.8457 0.808594C2.23242 0.269531 2.71289 0 3.28711 0C3.7793 0 4.19531 0.134766 4.53516 0.404297C4.875 0.673828 5.15039 1.04297 5.36133 1.51172C5.57227 1.96875 5.72461 2.50781 5.81836 3.12891C5.91211 3.73828 5.95898 4.38281 5.95898 5.0625C5.95898 6.44531 5.83008 7.80469 5.57227 9.14062C5.32617 10.4648 4.99219 11.7598 4.57031 13.0254C4.14844 14.291 3.65625 15.5273 3.09375 16.7344C2.53125 17.9297 1.93945 19.0957 1.31836 20.2324C1.31836 20.4434 1.31836 20.6953 1.31836 20.9883C1.31836 21.2812 1.31836 21.5742 1.31836 21.8672C1.31836 22.1602 1.31836 22.4355 1.31836 22.6934C1.31836 22.9512 1.31836 23.1562 1.31836 23.3086L1.33594 24.1348ZM1.33594 17.6484C1.82812 16.5703 2.27344 15.5215 2.67188 14.502C3.08203 13.4707 3.42773 12.4453 3.70898 11.4258C4.00195 10.4062 4.23047 9.375 4.39453 8.33203C4.55859 7.27734 4.64062 6.18164 4.64062 5.04492C4.64062 4.85742 4.62891 4.55859 4.60547 4.14844C4.59375 3.73828 4.54102 3.32227 4.44727 2.90039C4.36523 2.47852 4.23047 2.10938 4.04297 1.79297C3.86719 1.47656 3.61523 1.31836 3.28711 1.31836C3.0293 1.31836 2.80664 1.49414 2.61914 1.8457C2.43164 2.18555 2.26758 2.6543 2.12695 3.25195C1.98633 3.83789 1.86914 4.52344 1.77539 5.30859C1.68164 6.09375 1.60547 6.92578 1.54688 7.80469C1.48828 8.68359 1.44141 9.58594 1.40625 10.5117C1.38281 11.4375 1.36523 12.3398 1.35352 13.2188C1.3418 14.0859 1.33594 14.9004 1.33594 15.6621C1.33594 16.4238 1.33594 17.0859 1.33594 17.6484Z" fill="white"/>
</svg>
