<svg width="15" height="24" viewBox="0 0 15 24" fill="none" xmlns="http://www.w3.org/2000/svg">
<path d="M7.13672 18.4395C7.71094 21.1465 8.54297 22.5 9.63281 22.5C10.0547 22.5 10.459 22.3477 10.8457 22.043C11.2324 21.7266 11.5898 21.3457 11.918 20.9004C12.2578 20.4434 12.5566 19.9629 12.8145 19.459C13.0723 18.9551 13.2832 18.5156 13.4473 18.1406C13.5645 17.8594 13.7695 17.7188 14.0625 17.7188C14.25 17.7188 14.4082 17.7891 14.5371 17.9297C14.666 18.0703 14.7305 18.2227 14.7305 18.3867C14.7305 18.4805 14.7129 18.5625 14.6777 18.6328C14.5957 18.832 14.4727 19.1016 14.3086 19.4414C14.1562 19.7695 13.9629 20.127 13.7285 20.5137C13.5059 20.8887 13.2539 21.2754 12.9727 21.6738C12.6914 22.0723 12.3809 22.4297 12.041 22.7461C11.7012 23.0625 11.3379 23.3262 10.9512 23.5371C10.5762 23.7363 10.1777 23.8359 9.75586 23.8359C8.9707 23.8359 8.29688 23.5664 7.73438 23.0273C7.17188 22.4766 6.68555 21.5742 6.27539 20.3203C5.71289 21.5156 5.14453 22.3828 4.57031 22.9219C3.99609 23.4609 3.375 23.7305 2.70703 23.7305C2.35547 23.7305 2.01562 23.6719 1.6875 23.5547C1.35938 23.4492 1.07227 23.2676 0.826172 23.0098C0.580078 22.752 0.380859 22.4238 0.228516 22.0254C0.0761719 21.6152 0 21.1172 0 20.5312C0 19.7227 0.140625 18.9785 0.421875 18.2988C0.703125 17.6191 1.06641 17.0391 1.51172 16.5586C1.95703 16.0664 2.44922 15.6855 2.98828 15.416C3.53906 15.1465 4.08398 15.0117 4.62305 15.0117C4.79883 15.0117 4.95117 15.0762 5.08008 15.2051C5.20898 15.3223 5.27344 15.4746 5.27344 15.6621C5.27344 15.8262 5.2207 15.9727 5.11523 16.1016C5.00977 16.2305 4.86914 16.3066 4.69336 16.3301C4.3418 16.377 3.9668 16.4883 3.56836 16.6641C3.16992 16.8398 2.80078 17.0977 2.46094 17.4375C2.13281 17.7656 1.85742 18.1875 1.63477 18.7031C1.42383 19.2188 1.31836 19.834 1.31836 20.5488C1.31836 21.1348 1.43555 21.5918 1.66992 21.9199C1.91602 22.248 2.26758 22.4121 2.72461 22.4121C2.91211 22.4121 3.11133 22.3652 3.32227 22.2715C3.5332 22.166 3.75586 21.9668 3.99023 21.6738C4.23633 21.3809 4.5 20.9648 4.78125 20.4258C5.07422 19.8867 5.39648 19.1777 5.74805 18.2988C5.54883 17.2676 5.36719 16.0781 5.20312 14.7305C5.03906 13.3828 4.95703 11.877 4.95703 10.2129C4.95703 9.48633 4.98047 8.73047 5.02734 7.94531C5.07422 7.14844 5.15039 6.375 5.25586 5.625C5.36133 4.86328 5.50195 4.14258 5.67773 3.46289C5.85352 2.7832 6.06445 2.18555 6.31055 1.66992C6.56836 1.1543 6.86719 0.75 7.20703 0.457031C7.54688 0.152344 7.93359 0 8.36719 0C8.75391 0 9.08203 0.105469 9.35156 0.316406C9.62109 0.527344 9.83789 0.820312 10.002 1.19531C10.1777 1.57031 10.3066 2.02148 10.3887 2.54883C10.4707 3.07617 10.5117 3.65625 10.5117 4.28906C10.5117 5.64844 10.3945 7.00781 10.1602 8.36719C9.92578 9.72656 9.63281 11.0273 9.28125 12.2695C8.94141 13.5117 8.57812 14.6602 8.19141 15.7148C7.80469 16.7695 7.45312 17.6777 7.13672 18.4395ZM9.19336 4.27148C9.19336 3.97852 9.18164 3.66211 9.1582 3.32227C9.14648 2.98242 9.10547 2.66602 9.03516 2.37305C8.97656 2.06836 8.89453 1.81641 8.78906 1.61719C8.68359 1.41797 8.54297 1.31836 8.36719 1.31836C8.07422 1.31836 7.79883 1.57617 7.54102 2.0918C7.29492 2.60742 7.07812 3.28711 6.89062 4.13086C6.70312 4.96289 6.55078 5.91211 6.43359 6.97852C6.32812 8.0332 6.27539 9.09961 6.27539 10.1777C6.27539 11.209 6.31641 12.2402 6.39844 13.2715C6.48047 14.3027 6.57422 15.2227 6.67969 16.0312C7.01953 15.1289 7.3418 14.2031 7.64648 13.2539C7.95117 12.293 8.21484 11.3145 8.4375 10.3184C8.67188 9.32227 8.85352 8.32031 8.98242 7.3125C9.12305 6.29297 9.19336 5.2793 9.19336 4.27148Z" fill="white"/>
</svg>
