<svg width="16" height="11" viewBox="0 0 16 11" fill="none" xmlns="http://www.w3.org/2000/svg">
<path d="M7.46875 0.333984C7.95268 0.333984 8.39656 0.535177 8.70996 0.923828L8.71191 0.921875C8.71785 0.928999 8.72271 0.937148 8.72852 0.944336C8.73082 0.947292 8.73404 0.950147 8.73633 0.953125L8.73535 0.954102C8.98959 1.27299 9.11914 1.65246 9.11914 2.05469V2.09375L9.11621 2.13281L8.8877 5.05078L8.88672 5.05957L8.88574 5.06738C8.87077 5.22458 8.8713 5.47313 8.90234 5.83301C8.9414 6.15892 9.01363 6.48127 9.12012 6.80078C9.20609 7.05871 9.32894 7.26464 9.48145 7.43359C9.52516 7.47738 9.59195 7.52344 9.77148 7.52344V8.52344C9.34961 8.52344 9.00977 8.38867 8.75195 8.11914C8.49414 7.83789 8.30078 7.50391 8.17188 7.11719C8.04297 6.73047 7.95508 6.33789 7.9082 5.93945C7.87305 5.54102 7.86719 5.21875 7.89062 4.97266L8.11914 2.05469C8.11914 1.86719 8.06055 1.70312 7.94336 1.5625C7.82617 1.41016 7.66797 1.33398 7.46875 1.33398C7.29297 1.33398 7.14062 1.39258 7.01172 1.50977C6.88281 1.62695 6.80664 1.77344 6.7832 1.94922L6.51953 4.97266C6.46094 5.55859 6.33203 6.06836 6.13281 6.50195C5.93359 6.93555 5.69922 7.29297 5.42969 7.57422C5.17188 7.85547 4.90234 8.06641 4.62109 8.20703C4.35156 8.33594 4.11133 8.40039 3.90039 8.40039V7.40039C3.91301 7.40039 3.99923 7.39332 4.18066 7.30762C4.33045 7.2314 4.50311 7.1049 4.69238 6.89844L4.7002 6.89062L4.70801 6.88184C4.88522 6.69681 5.06193 6.43805 5.22461 6.08398C5.36817 5.77134 5.47438 5.37341 5.52441 4.87305L5.78906 1.83984L5.79199 1.81738C5.84599 1.41237 6.03202 1.04848 6.33887 0.769531L6.46094 0.668945C6.75276 0.44866 7.09952 0.333984 7.46875 0.333984ZM2.31836 6.29102C2.31836 5.68164 2.37109 5.14258 2.47656 4.67383C2.58203 4.19336 2.70508 3.77734 2.8457 3.42578C2.98633 3.07422 3.12109 2.79297 3.25 2.58203C3.37891 2.35938 3.47266 2.19531 3.53125 2.08984C3.56641 2.01953 3.5957 1.94922 3.61914 1.87891C3.6543 1.80859 3.67188 1.73828 3.67188 1.66797C3.67188 1.49219 3.60742 1.33984 3.47852 1.21094C3.36133 1.07031 3.20898 1 3.02148 1C2.92773 1 2.83398 1.01758 2.74023 1.05273C2.6582 1.08789 2.58789 1.14062 2.5293 1.21094C2.5293 1.21094 2.44727 1.32227 2.2832 1.54492C2.11914 1.76758 1.94336 2.0957 1.75586 2.5293C1.56836 2.95117 1.39258 3.47852 1.22852 4.11133C1.07617 4.74414 1 5.4707 1 6.29102C1 6.81836 1.06445 7.29297 1.19336 7.71484C1.33398 8.13672 1.5332 8.5 1.79102 8.80469C2.04883 9.09766 2.35352 9.32617 2.70508 9.49023C3.05664 9.6543 3.45508 9.73633 3.90039 9.73633C4.45117 9.73633 4.99609 9.54297 5.53516 9.15625C6.08594 8.76953 6.56641 8.24219 6.97656 7.57422C7.19922 8.30078 7.53906 8.86328 7.99609 9.26172C8.45312 9.64844 9.02734 9.8418 9.71875 9.8418C10.2227 9.8418 10.6914 9.73047 11.125 9.50781C11.5703 9.27344 11.9805 8.98047 12.3555 8.62891C12.7305 8.26562 13.0703 7.87305 13.375 7.45117C13.6797 7.0293 13.9375 6.63086 14.1484 6.25586C14.3711 5.86914 14.5469 5.5293 14.6758 5.23633C14.8164 4.93164 14.9102 4.73242 14.957 4.63867C14.9922 4.55664 15.0098 4.46875 15.0098 4.375C15.0098 4.21094 14.9512 4.05859 14.834 3.91797C14.7168 3.77734 14.5527 3.70703 14.3418 3.70703C14.2129 3.70703 14.0957 3.74219 13.9902 3.8125C13.8848 3.88281 13.8027 3.98242 13.7441 4.11133C13.6504 4.32227 13.5332 4.58008 13.3926 4.88477C13.252 5.17773 13.082 5.48828 12.8828 5.81641C12.6953 6.14453 12.4844 6.47266 12.25 6.80078C12.0273 7.11719 11.7812 7.4043 11.5117 7.66211C11.2422 7.91992 10.9609 8.13086 10.668 8.29492C10.375 8.44727 10.0762 8.52344 9.77148 8.52344V7.52344C9.90071 7.52344 10.0401 7.49239 10.2002 7.41016C10.4051 7.29295 10.6122 7.13847 10.8203 6.93945C11.0413 6.72811 11.2459 6.49093 11.4326 6.22559L11.4365 6.21973C11.6526 5.91722 11.8449 5.6173 12.0146 5.32031L12.0215 5.30859L12.0283 5.29785C12.2118 4.99564 12.3637 4.7158 12.4873 4.45898C12.6254 4.15975 12.7396 3.90876 12.8301 3.70508L12.834 3.69727C12.9605 3.41908 13.1572 3.16602 13.4355 2.98047L13.5391 2.91699C13.7858 2.77746 14.0592 2.70703 14.3418 2.70703C14.7417 2.70703 15.1484 2.83398 15.4697 3.13672L15.6025 3.27734L15.6914 3.39355C15.8881 3.67056 16.0098 4.00306 16.0098 4.375C16.0098 4.59714 15.9671 4.81955 15.876 5.03223L15.8643 5.05957L15.8516 5.08594C15.813 5.16315 15.726 5.34765 15.584 5.65527L15.583 5.6543C15.4372 5.98364 15.2468 6.34811 15.0186 6.74512L15.0195 6.74609C14.7868 7.15985 14.5079 7.59082 14.1855 8.03711C13.8465 8.50654 13.4676 8.94284 13.0508 9.34668L13.0391 9.3584C12.6001 9.76988 12.1171 10.1156 11.5908 10.3926L11.582 10.3975C11.0022 10.6952 10.376 10.8418 9.71875 10.8418C8.82971 10.8418 8.0156 10.5879 7.35059 10.0254L7.33887 10.0156C7.13178 9.83508 6.94862 9.63243 6.78418 9.41309C6.57457 9.61612 6.35283 9.80166 6.11719 9.96777L6.11816 9.96875C5.44469 10.4519 4.70013 10.7363 3.90039 10.7363C3.33054 10.7363 2.78443 10.6308 2.28223 10.3965C1.80486 10.1737 1.38846 9.86078 1.04004 9.46484L1.03418 9.45801L1.02734 9.4502C0.678713 9.03807 0.421328 8.55977 0.245117 8.03125L0.240234 8.01953L0.237305 8.00684C0.0744817 7.47391 0 6.89862 0 6.29102C0 5.41127 0.0810156 4.60323 0.255859 3.87695L0.258789 3.86914L0.260742 3.86035C0.433396 3.19441 0.624964 2.61092 0.841797 2.12305C1.04016 1.66543 1.25056 1.26154 1.47852 0.952148L1.47949 0.950195L1.48145 0.948242L1.48242 0.946289L1.4834 0.945312L1.48438 0.942383L1.48633 0.94043L1.4873 0.938477L1.48926 0.936523L1.49023 0.93457L1.49316 0.931641L1.49414 0.929688L1.49609 0.927734L1.49707 0.925781L1.5 0.922852L1.50098 0.920898L1.50293 0.918945L1.50391 0.916992L1.50586 0.914062L1.50684 0.912109L1.50977 0.90918L1.51074 0.907227L1.51367 0.904297L1.51465 0.902344L1.51758 0.898438L1.51855 0.896484L1.52148 0.893555L1.52246 0.891602L1.52344 0.890625L1.52539 0.887695L1.52637 0.885742L1.53027 0.881836V0.879883L1.53516 0.875L1.53613 0.873047L1.53711 0.87207L1.54004 0.868164L1.54102 0.866211L1.54297 0.864258L1.5459 0.860352L1.54688 0.858398L1.54785 0.857422L1.55273 0.851562V0.849609L1.55664 0.845703L1.56055 0.84082V0.838867L1.56445 0.834961L1.56836 0.830078L1.57129 0.826172V0.824219L1.5752 0.820312L1.57812 0.816406L1.58105 0.8125L1.58398 0.808594L1.58691 0.804688L1.58984 0.800781L1.5918 0.797852L1.59473 0.793945L1.59668 0.791016L1.59961 0.787109L1.60059 0.785156L1.60156 0.78418L1.60352 0.782227L1.60547 0.779297L1.6084 0.775391L1.6123 0.770508L1.61426 0.767578L1.61523 0.765625L1.61621 0.763672L1.61719 0.762695L1.61914 0.760742L1.62305 0.755859L1.62402 0.75293L1.625 0.751953L1.62598 0.750977L1.62793 0.749023L1.62891 0.74707L1.62988 0.746094L1.63086 0.745117L1.63184 0.743164L1.63281 0.742188L1.63379 0.741211L1.63477 0.738281L1.63672 0.737305L1.6377 0.734375L1.63965 0.733398L1.64062 0.730469L1.6416 0.729492L1.64453 0.726562L1.64648 0.723633L1.64746 0.72168L1.64844 0.720703L1.64941 0.71875L1.65039 0.717773L1.65137 0.71582L1.65234 0.714844L1.65527 0.711914L1.65625 0.710938L1.6582 0.708008L1.66016 0.705078L1.66113 0.704102L1.66309 0.701172L1.66406 0.700195L1.66602 0.697266L1.66797 0.694336L1.66895 0.693359L1.6709 0.69043L1.67188 0.689453L1.67285 0.688477V0.686523L1.67383 0.685547L1.6748 0.68457L1.67676 0.682617L1.67969 0.678711L1.68262 0.674805L1.68359 0.673828V0.671875L1.68457 0.670898L1.68555 0.669922L1.6875 0.667969L1.68848 0.666992L1.69043 0.664062L1.69141 0.663086L1.69336 0.660156L1.69629 0.65625L1.69727 0.655273V0.65332L1.69922 0.652344L1.70117 0.649414L1.70215 0.648438L1.7041 0.645508L1.70508 0.643555L1.70605 0.641602L1.70703 0.640625L1.70996 0.637695L1.71094 0.636719V0.634766L1.71289 0.633789L1.71387 0.630859L1.71582 0.629883L1.7168 0.62793L1.71777 0.626953L1.71875 0.625977L1.71973 0.625V0.623047L1.7207 0.62207L1.72168 0.620117L1.72363 0.619141L1.74219 0.59375L1.76074 0.570312C1.91766 0.382038 2.11587 0.232708 2.34668 0.133789L2.36719 0.124023L2.38867 0.116211C2.58701 0.0418344 2.79988 0 3.02148 0C3.46775 0 3.87835 0.173362 4.18555 0.503906C4.20698 0.525335 4.22692 0.547984 4.24707 0.570312L4.24609 0.571289C4.51616 0.870593 4.67188 1.24757 4.67188 1.66797C4.67188 1.87816 4.62266 2.07173 4.54785 2.24512C4.51216 2.34496 4.47287 2.44292 4.42578 2.53711L4.41602 2.55664L4.40527 2.5752C4.34212 2.68888 4.24457 2.8596 4.11523 3.08301L4.10938 3.09375L4.10352 3.10352C4.01491 3.24851 3.90388 3.47325 3.77441 3.79688C3.65914 4.08507 3.55011 4.44685 3.45312 4.88867L3.45215 4.89355C3.36656 5.27404 3.31836 5.73692 3.31836 6.29102C3.31836 6.84499 3.42496 7.12588 3.5127 7.25684C3.57907 7.33636 3.66841 7.40039 3.90039 7.40039V8.40039C3.39648 8.40039 3.00391 8.22461 2.72266 7.87305C2.45312 7.50977 2.31836 6.98242 2.31836 6.29102Z" fill="black"/>
</svg>
