<svg width="13" height="29" viewBox="0 0 13 29" fill="none" xmlns="http://www.w3.org/2000/svg">
<path d="M7.55664 6.16797C7.55664 5.21875 7.49805 4.41602 7.38086 3.75977C7.26367 3.10352 7.09961 2.57031 6.88867 2.16016C6.67773 1.75 6.41406 1.45703 6.09766 1.28125C5.79297 1.09375 5.44727 1 5.06055 1C4.56836 1 4.12891 1.19922 3.74219 1.59766C3.35547 1.99609 3.00977 2.53516 2.70508 3.21484C2.41211 3.89453 2.1543 4.68555 1.93164 5.58789C1.7207 6.49023 1.54492 7.44531 1.4043 8.45312C1.26367 9.46094 1.1582 10.4922 1.08789 11.5469C1.0293 12.6016 1 13.6211 1 14.6055C1 15.2852 1.01758 16.0645 1.05273 16.9434C1.09961 17.8223 1.18164 18.7305 1.29883 19.668C1.41602 20.5938 1.58008 21.5078 1.79102 22.4102C2.01367 23.3008 2.30078 24.0977 2.65234 24.8008C3.00391 25.5039 3.43164 26.0723 3.93555 26.5059C4.43945 26.9395 5.04297 27.1562 5.74609 27.1562C6.20312 27.1562 6.63086 27.0566 7.0293 26.8574C7.43945 26.6699 7.82031 26.4238 8.17188 26.1191C8.53516 25.8027 8.86914 25.4512 9.17383 25.0645C9.47852 24.666 9.75391 24.2676 10 23.8691C10.2461 23.4707 10.4629 23.0898 10.6504 22.7266C10.8496 22.3516 11.0137 22.0293 11.1426 21.7598C11.1895 21.6426 11.2129 21.5488 11.2129 21.4785C11.2129 21.3027 11.1484 21.1445 11.0195 21.0039C10.9023 20.8633 10.7441 20.793 10.5449 20.793C10.416 20.793 10.2988 20.8281 10.1934 20.8984C10.0879 20.957 10.0059 21.0449 9.94727 21.1621C9.79492 21.4785 9.57812 21.9004 9.29688 22.4277C9.02734 22.9434 8.71094 23.4531 8.34766 23.957C7.98438 24.4609 7.58594 24.9004 7.15234 25.2754C6.71875 25.6387 6.26758 25.8203 5.79883 25.8203V24.8203C5.98505 24.8203 6.21324 24.7543 6.50195 24.5146C6.8704 24.1954 7.21584 23.8163 7.53613 23.3721C7.87337 22.9043 8.16513 22.4355 8.41113 21.9648L8.41406 21.957C8.69254 21.4349 8.90222 21.0269 9.0459 20.7285L9.0498 20.7217L9.05273 20.7148C9.18209 20.4561 9.37722 20.2296 9.63867 20.0664C9.91135 19.8846 10.2222 19.793 10.5449 19.793C10.9963 19.793 11.4322 19.963 11.7549 20.3281H11.7568C11.7674 20.3397 11.7778 20.3515 11.7881 20.3633H11.7871C12.0511 20.6659 12.2129 21.0469 12.2129 21.4785C12.2129 21.7396 12.1339 21.9743 12.0713 22.1309L12.0586 22.1611L12.0449 22.1914C11.9093 22.475 11.7389 22.8063 11.5381 23.1846C11.3373 23.5736 11.1082 23.9774 10.8506 24.3945C10.5859 24.8231 10.2912 25.2489 9.96777 25.6719L9.96387 25.6777L9.95898 25.6836C9.61671 26.118 9.24019 26.515 8.8291 26.873L8.82715 26.875C8.41468 27.2325 7.96309 27.5245 7.47559 27.751C6.93472 28.0213 6.35405 28.1562 5.74609 28.1562C4.8186 28.1562 3.97961 27.8629 3.2832 27.2637C2.66223 26.7293 2.15801 26.0484 1.75781 25.248C1.36872 24.4699 1.05877 23.6023 0.821289 22.6523L0.819336 22.6455L0.817383 22.6377C0.598553 21.7016 0.428135 20.7536 0.306641 19.7939V19.792C0.186745 18.8328 0.101939 17.9011 0.0537109 16.9971V16.9834C0.0181674 16.0948 0 15.3017 0 14.6055C0 13.6013 0.0302974 12.563 0.0898438 11.4912V11.4805C0.161693 10.4027 0.269992 9.34696 0.414062 8.31445C0.558464 7.27967 0.739573 6.29478 0.958008 5.36035L0.960938 5.34863C1.19359 4.40577 1.46769 3.56041 1.78711 2.81934L1.79297 2.80566C2.13003 2.05381 2.53412 1.40658 3.02441 0.901367C3.57301 0.336145 4.26222 0 5.06055 0C5.60176 0 6.11695 0.131891 6.58203 0.408203L6.58301 0.407227C6.585 0.408333 6.58688 0.410022 6.58887 0.411133C6.59964 0.41757 6.61135 0.423092 6.62207 0.429688L6.62109 0.431641C7.13203 0.727384 7.50851 1.17849 7.77832 1.70312C8.05004 2.23161 8.23764 2.86946 8.36523 3.58398C8.49611 4.31688 8.55664 5.18236 8.55664 6.16797C8.55664 7.40993 8.42635 8.6874 8.16895 9.99902L8.16797 10.001C7.91328 11.2865 7.56825 12.5814 7.13379 13.8848C6.70053 15.1845 6.19042 16.4826 5.60254 17.7783L5.60059 17.7812C5.06891 18.9423 4.50054 20.0782 3.89941 21.1904C4.16983 22.4453 4.50653 23.3865 4.8877 24.0508L5.03125 24.2783C5.35971 24.7501 5.62537 24.8203 5.79883 24.8203V25.8203C5.10742 25.8203 4.51562 25.3984 4.02344 24.5547C3.53125 23.6992 3.13867 22.5273 2.8457 21.0391C3.50195 19.8438 4.11719 18.6191 4.69141 17.3652C5.26562 16.0996 5.76367 14.834 6.18555 13.5684C6.60742 12.3027 6.94141 11.0488 7.1875 9.80664C7.43359 8.55273 7.55664 7.33984 7.55664 6.16797ZM5.23828 6.18555C5.23828 4.8707 5.1294 4.05009 4.9834 3.61719C4.86241 3.84725 4.73265 4.15065 4.60059 4.53906C4.41825 5.07543 4.24691 5.72461 4.08887 6.49219C3.93051 7.26135 3.79408 8.09218 3.67969 8.98438C3.57713 9.87496 3.48979 10.8068 3.4209 11.7803L3.42188 11.7812C3.36583 12.734 3.33732 13.681 3.33594 14.6221C3.63833 13.8401 3.91273 13.0558 4.1582 12.2686C4.48674 11.2033 4.74684 10.1523 4.93848 9.11523L4.94043 9.10645C5.1407 8.07159 5.23828 7.09854 5.23828 6.18555ZM6.23828 6.18555C6.23828 7.16992 6.13281 8.20703 5.92188 9.29688C5.72266 10.375 5.45312 11.4648 5.11328 12.5664C4.77344 13.6562 4.38086 14.7402 3.93555 15.8184C3.49023 16.8848 3.02148 17.8926 2.5293 18.8418C2.4707 18.209 2.42383 17.5469 2.38867 16.8555C2.35352 16.1641 2.33594 15.4434 2.33594 14.6934C2.33594 13.709 2.36523 12.7188 2.42383 11.7227C2.49414 10.7266 2.58203 9.77148 2.6875 8.85742C2.80469 7.94336 2.94531 7.08789 3.10938 6.29102C3.27344 5.49414 3.45508 4.80273 3.6543 4.2168C3.85352 3.63086 4.06445 3.16797 4.28711 2.82812C4.52148 2.48828 4.76172 2.31836 5.00781 2.31836C5.38281 2.31836 5.68164 2.61719 5.9043 3.21484C6.12695 3.8125 6.23828 4.80273 6.23828 6.18555Z" fill="black"/>
</svg>
