<svg width="16" height="11" viewBox="0 0 16 11" fill="none" xmlns="http://www.w3.org/2000/svg">
<path d="M2.33594 6.48438C2.33594 5.76953 2.44727 5.1543 2.66992 4.63867C2.9043 4.11133 3.19141 3.67773 3.53125 3.33789C3.87109 2.98633 4.24609 2.72852 4.65625 2.56445C5.06641 2.40039 5.45312 2.31836 5.81641 2.31836C6.0625 2.31836 6.2793 2.34766 6.4668 2.40625C6.66602 2.45312 6.83594 2.51172 6.97656 2.58203C7.11719 2.65234 7.22852 2.72266 7.31055 2.79297C7.39258 2.85156 7.44531 2.89258 7.46875 2.91602C7.59766 3.04492 7.75586 3.10938 7.94336 3.10938C8.11914 3.10938 8.27148 3.04492 8.40039 2.91602C8.5293 2.77539 8.59375 2.61719 8.59375 2.44141C8.59375 2.27734 8.5293 2.11914 8.40039 1.9668C8.38867 1.95508 8.32422 1.90234 8.20703 1.80859C8.08984 1.70312 7.91992 1.5918 7.69727 1.47461C7.48633 1.35742 7.22852 1.25195 6.92383 1.1582C6.61914 1.05273 6.28516 1 5.92188 1C5.38281 1 4.82031 1.11719 4.23438 1.35156C3.66016 1.58594 3.13281 1.9375 2.65234 2.40625C2.17188 2.875 1.77344 3.46094 1.45703 4.16406C1.15234 4.85547 1 5.6582 1 6.57227C1 7.0293 1.06445 7.45117 1.19336 7.83789C1.33398 8.22461 1.52734 8.56445 1.77344 8.85742C2.01953 9.13867 2.31836 9.36133 2.66992 9.52539C3.02148 9.67773 3.41406 9.75391 3.84766 9.75391C4.39844 9.75391 4.94922 9.56055 5.5 9.17383C6.05078 8.77539 6.52539 8.24219 6.92383 7.57422C7.13477 8.23047 7.46875 8.77539 7.92578 9.20898C8.39453 9.64258 8.96875 9.85938 9.64844 9.85938C10.1289 9.85938 10.5859 9.74805 11.0195 9.52539C11.4531 9.29102 11.8574 8.99805 12.2324 8.64648C12.6074 8.29492 12.9473 7.9082 13.252 7.48633C13.5566 7.06445 13.8203 6.66016 14.043 6.27344C14.2188 5.9834 14.3682 5.71973 14.4912 5.48242L14.9043 4.65625C14.9395 4.57422 14.957 4.49219 14.957 4.41016C14.957 4.24609 14.8926 4.09375 14.7637 3.95312C14.6465 3.80078 14.4883 3.72461 14.2891 3.72461C14.1602 3.72461 14.0371 3.75977 13.9199 3.83008C13.8145 3.90039 13.7324 4 13.6738 4.12891C13.5684 4.35156 13.4395 4.61523 13.2871 4.91992C13.1348 5.22461 12.959 5.54102 12.7598 5.86914C12.5605 6.19727 12.3379 6.52539 12.0918 6.85352C11.8574 7.16992 11.6055 7.45703 11.3359 7.71484C11.0781 7.96094 10.8086 8.16016 10.5273 8.3125C10.2578 8.46484 9.98242 8.54102 9.70117 8.54102V7.54102C9.79293 7.54102 9.90036 7.51852 10.0352 7.44238L10.043 7.4375L10.0508 7.43359C10.2457 7.328 10.4446 7.18295 10.6455 6.99121C10.8715 6.77493 11.0859 6.53079 11.2881 6.25781L11.292 6.25391C11.5198 5.95018 11.7241 5.64895 11.9053 5.35059C12.092 5.04296 12.2539 4.75006 12.3926 4.47266C12.5428 4.17217 12.669 3.9155 12.7705 3.70117C12.8972 3.42846 13.0915 3.18051 13.3652 2.99805L13.3848 2.98438L13.4053 2.97266C13.6681 2.81494 13.9679 2.72461 14.2891 2.72461C14.7572 2.72461 15.1876 2.91328 15.499 3.27734H15.501C15.7696 3.57037 15.957 3.95564 15.957 4.41016C15.957 4.63904 15.907 4.85441 15.8232 5.0498L15.8115 5.07715L15.7988 5.10352V5.10449H15.7979V5.10547L15.7969 5.10645V5.1084H15.7959V5.10938L15.7949 5.11035V5.1123H15.7939V5.11328L15.793 5.11426V5.11523L15.792 5.11621V5.11719L15.791 5.11816V5.12012H15.79V5.12207H15.7891V5.12402H15.7881V5.125L15.7871 5.12598V5.12695L15.7861 5.12793V5.12891L15.7852 5.12988V5.13086L15.7842 5.13184V5.13281L15.7832 5.13379V5.13574H15.7822V5.1377H15.7812V5.13965H15.7803V5.14062L15.7793 5.1416V5.14258L15.7783 5.14355V5.14453L15.7773 5.14551V5.14746H15.7764V5.14844L15.7754 5.14941V5.15039L15.7744 5.15137V5.15332H15.7734V5.1543L15.7725 5.15527V5.15625L15.7715 5.15723V5.15918H15.7705V5.16016L15.7695 5.16113V5.16309H15.7686V5.16406L15.7676 5.16504V5.16699H15.7666V5.16797L15.7656 5.16895V5.1709H15.7646V5.17188L15.7637 5.17285V5.1748H15.7627V5.17578L15.7617 5.17676V5.17773L15.7607 5.17871V5.17969L15.7598 5.18066V5.18164L15.7588 5.18262V5.18457L15.7568 5.18652V5.1875L15.7559 5.18848V5.19043L15.7539 5.19238V5.19336L15.7529 5.19434V5.19531L15.752 5.19629V5.19824L15.75 5.2002V5.20117L15.749 5.20215V5.20312L15.748 5.20508L15.7471 5.20605V5.20801H15.7461V5.20898L15.7451 5.20996V5.21094L15.7441 5.21191V5.21289L15.7432 5.21387V5.21484L15.7422 5.2168L15.7412 5.21777V5.21973L15.7402 5.2207V5.22168L15.7393 5.22266V5.22363L15.7373 5.22559V5.22656L15.7363 5.22754V5.22852L15.7354 5.22949V5.23047L15.7344 5.23145V5.23242L15.7334 5.2334V5.23438L15.7324 5.23535V5.23633L15.7314 5.2373V5.23828L15.7305 5.23926V5.24023L15.7295 5.24121V5.24219L15.7285 5.24316V5.24414L15.7275 5.24512V5.24609L15.7266 5.24707V5.24805L15.7256 5.24902V5.25L15.7246 5.25098V5.25195L15.7236 5.25391V5.25488L15.7227 5.25586V5.25684L15.7217 5.25781V5.25879L15.7197 5.26074V5.26172L15.7188 5.2627V5.26367L15.7178 5.26465V5.26562L15.7168 5.2666V5.26758L15.7158 5.26855V5.26953L15.7148 5.27051V5.27246L15.7129 5.27441V5.27539L15.7119 5.27637V5.27734L15.7109 5.27832V5.2793L15.71 5.28027V5.28125L15.709 5.2832V5.28418L15.707 5.28613V5.28711L15.7061 5.28809V5.28906L15.7051 5.29004V5.29102L15.7041 5.29297V5.29395L15.7021 5.2959V5.29688L15.7012 5.29785V5.29883L15.7002 5.30078V5.30176L15.6982 5.30371V5.30469L15.6973 5.30566V5.30664L15.6963 5.30859L15.6953 5.30957V5.31055L15.6943 5.31152V5.3125L15.6934 5.31348V5.31543L15.6914 5.31738V5.31836L15.6904 5.31934V5.32129L15.6885 5.32324V5.32422L15.6875 5.3252V5.32715L15.6855 5.3291V5.33008L15.6846 5.33105V5.33301L15.6826 5.33496V5.33594L15.6816 5.33691V5.33887L15.6797 5.34082V5.3418L15.6787 5.34375L15.6777 5.34473V5.3457L15.6768 5.34668V5.34863L15.6748 5.35059V5.35156L15.6738 5.35352L15.6729 5.35449V5.35547L15.6719 5.35645V5.3584L15.6699 5.36035V5.36133L15.6689 5.36328L15.668 5.36426V5.36523L15.667 5.36719L15.666 5.36816V5.36914L15.665 5.37012L15.6641 5.37207V5.37305L15.6631 5.37402V5.37598L15.6611 5.37793V5.37988L15.6592 5.38184V5.38281L15.6582 5.38477L15.6572 5.38574V5.38672L15.6562 5.38867L15.6553 5.38965V5.39062L15.6543 5.39258L15.6533 5.39355V5.39453L15.6523 5.39648L15.6514 5.39746V5.39844L15.6504 5.40039L15.6494 5.40137V5.40332L15.6475 5.40527V5.40723L15.6455 5.40918V5.41113L15.6436 5.41309L15.6426 5.41504V5.41602L15.6416 5.41797L15.6406 5.41895V5.41992L15.6396 5.42188L15.6387 5.42285V5.42383L15.6377 5.42578L15.6367 5.42676V5.42871L15.6348 5.43066L15.6338 5.43262V5.43359L15.6328 5.43555L15.6318 5.43652V5.43848L15.6299 5.44043L15.6289 5.44238V5.44336L15.6279 5.44531L15.627 5.44629V5.44824L15.625 5.4502L15.624 5.45215V5.45312L15.623 5.45508L15.6221 5.45605V5.45801L15.6211 5.45898L15.6201 5.46094L15.6191 5.46191V5.46289L15.6182 5.46484L15.6172 5.46582L15.6162 5.46777V5.46875L15.6152 5.4707L15.6143 5.47168L15.6133 5.47363V5.47461L15.6123 5.47656L15.6113 5.47754V5.47949L15.6104 5.48047L15.6094 5.48242L15.6084 5.4834V5.48535L15.6074 5.48633L15.6064 5.48828L15.6055 5.48926V5.49121L15.6045 5.49219L15.6035 5.49414L15.6025 5.49512L15.6016 5.49707V5.49805L15.6006 5.5L15.5996 5.50098L15.5986 5.50293V5.50391L15.5977 5.50586L15.5967 5.50684L15.5957 5.50879V5.51074L15.5947 5.51172L15.5938 5.51367L15.5928 5.51465V5.5166L15.5918 5.51758L15.5908 5.51953L15.5898 5.52051L15.5889 5.52246V5.52344L15.5869 5.52734L15.5859 5.52832L15.585 5.53027V5.53125L15.584 5.5332L15.583 5.53418L15.582 5.53613V5.53809L15.5811 5.53906L15.5801 5.54102L15.5791 5.54199L15.5781 5.54395V5.5459L15.5771 5.54688L15.5762 5.54883L15.5752 5.5498L15.5742 5.55176V5.55371L15.5732 5.55469L15.5723 5.55664L15.5713 5.55762L15.5703 5.55957V5.56152L15.5693 5.5625L15.5674 5.56641L15.5664 5.56738L15.5654 5.56934V5.57129L15.5645 5.57227L15.5635 5.57422L15.5625 5.5752L15.5615 5.57715V5.5791L15.5605 5.58008L15.5586 5.58398L15.5576 5.58496L15.5566 5.58691V5.58887L15.5557 5.58984L15.5537 5.59375L15.5527 5.59473L15.5518 5.59668V5.59863L15.5508 5.59961L15.5488 5.60352L15.5479 5.60449L15.5459 5.6084V5.61035L15.5449 5.61133L15.543 5.61523L15.542 5.61621L15.54 5.62012V5.62109L15.5371 5.62695L15.5361 5.62793L15.5342 5.63184V5.63379L15.5332 5.63477L15.5312 5.63867L15.5303 5.63965L15.5283 5.64355V5.64551L15.5273 5.64648L15.5244 5.65234L15.5234 5.65332L15.5205 5.65918V5.66113L15.5195 5.66211L15.5166 5.66797L15.5156 5.66895L15.5127 5.6748V5.67676L15.5117 5.67773L15.5078 5.68555L15.5068 5.68652L15.5039 5.69238V5.69434L15.5029 5.69531L15.5 5.70117C15.3421 6.02848 15.1401 6.39328 14.8984 6.79199L14.8975 6.79102C14.6576 7.20589 14.3792 7.63375 14.0625 8.07227C13.7208 8.54532 13.3383 8.98013 12.916 9.37598C12.481 9.78375 12.0075 10.1283 11.4951 10.4053L11.4854 10.4102L11.4766 10.415C10.9038 10.7092 10.2902 10.8594 9.64844 10.8594C8.73492 10.8594 7.91322 10.5594 7.24707 9.94336L7.2373 9.93457C7.0638 9.76996 6.90679 9.5924 6.7627 9.40527C6.55077 9.6162 6.32605 9.81068 6.08594 9.98438L6.07422 9.99219C5.39309 10.4704 4.6459 10.7539 3.84766 10.7539C3.29536 10.7539 2.76495 10.6567 2.27246 10.4434L2.24707 10.4316C1.77451 10.2111 1.3616 9.90545 1.02051 9.51562L1.01465 9.50879L1.00781 9.50098C0.68105 9.11197 0.431459 8.6679 0.253906 8.17969L0.249023 8.16699L0.245117 8.1543C0.0783757 7.65407 0 7.1239 0 6.57227C0 5.54787 0.170849 4.60295 0.541992 3.76074L0.544922 3.75391C0.905199 2.95329 1.37162 2.25871 1.9541 1.69043C2.51916 1.13916 3.15341 0.712742 3.85645 0.425781L3.86328 0.422852C4.54739 0.14925 5.23595 0 5.92188 0C6.38252 0 6.82867 0.0667182 7.25098 0.212891L7.25 0.213867C7.58089 0.317433 7.8884 0.440987 8.16211 0.59082L8.16309 0.589844C8.40293 0.716085 8.6354 0.861145 8.83105 1.02832L8.83203 1.02734C8.89161 1.07501 8.94011 1.11471 8.97656 1.14453L9.10742 1.25977L9.13672 1.28906L9.16406 1.32129C9.4112 1.6135 9.59375 1.99275 9.59375 2.44141C9.59375 2.88964 9.41995 3.28386 9.1377 3.5918L9.12305 3.60742L9.10742 3.62305C8.93604 3.79443 8.73462 3.92326 8.5127 4.00586C8.68297 4.2452 8.79453 4.52881 8.81738 4.84863L8.81836 4.8584L8.81934 4.86719C8.83016 5.07291 8.85198 5.37581 8.88672 5.78125L8.91504 6.0293C8.94903 6.27274 9.0013 6.51814 9.07324 6.76562C9.16593 7.04869 9.29337 7.27473 9.44727 7.45801C9.47669 7.49304 9.51885 7.54102 9.70117 7.54102V8.54102C9.26758 8.54102 8.92773 8.39453 8.68164 8.10156C8.43555 7.80859 8.24805 7.46289 8.11914 7.06445C8.00195 6.66602 7.92578 6.26758 7.89062 5.86914C7.85547 5.45898 7.83203 5.14258 7.82031 4.91992C7.80859 4.75586 7.73828 4.60938 7.60938 4.48047C7.49219 4.35156 7.35156 4.28711 7.1875 4.28711C7.01172 4.28711 6.85938 4.3457 6.73047 4.46289C6.60156 4.56836 6.52539 4.70312 6.50195 4.86719C6.41992 5.47656 6.27344 6.00391 6.0625 6.44922C5.86328 6.89453 5.63477 7.26367 5.37695 7.55664C5.13086 7.84961 4.86719 8.06641 4.58594 8.20703C4.31641 8.34766 4.07617 8.41797 3.86523 8.41797V7.41797C3.85981 7.41797 3.93771 7.41698 4.12305 7.32031L4.13867 7.3125C4.27425 7.24471 4.43452 7.12358 4.61133 6.91309L4.61816 6.9043L4.62598 6.89648C4.80317 6.69513 4.98148 6.41635 5.14941 6.04102L5.15918 6.02148C5.31664 5.68907 5.4392 5.26483 5.51074 4.7334L5.51172 4.72559C5.56832 4.32963 5.75906 3.98351 6.05762 3.72363V3.72266C6.18154 3.61001 6.31777 3.51875 6.46289 3.44922C6.40856 3.42796 6.33491 3.40285 6.2373 3.37988L6.20312 3.37109L6.16895 3.36035C6.0988 3.33843 5.98573 3.31836 5.81641 3.31836C5.60459 3.31836 5.34419 3.36642 5.02734 3.49316C4.76175 3.59946 4.5022 3.77231 4.25 4.0332L4.23828 4.04492C4.00072 4.28248 3.77826 4.6078 3.58398 5.04492C3.43043 5.40499 3.33594 5.8756 3.33594 6.48438C3.33594 6.63366 3.35124 6.79313 3.38477 6.96387C3.40815 7.07494 3.44692 7.16987 3.5 7.25488C3.52795 7.2996 3.56697 7.34053 3.63379 7.37988C3.64334 7.3855 3.70356 7.41797 3.86523 7.41797V8.41797C3.57227 8.41797 3.32617 8.35938 3.12695 8.24219C2.92773 8.125 2.76953 7.97266 2.65234 7.78516C2.53516 7.59766 2.45312 7.39258 2.40625 7.16992C2.35938 6.93555 2.33594 6.70703 2.33594 6.48438Z" fill="black"/>
</svg>
