<svg width="10" height="17" viewBox="0 0 10 17" fill="none" xmlns="http://www.w3.org/2000/svg">
<path d="M3.19922 1.59961C3.19922 2.04492 3.04102 2.42578 2.72461 2.74219C2.41992 3.04688 2.04492 3.19922 1.59961 3.19922C1.1543 3.19922 0.773438 3.04688 0.457031 2.74219C0.152344 2.42578 0 2.04492 0 1.59961C0 1.37695 0.0410156 1.17188 0.123047 0.984375C0.205078 0.785156 0.316406 0.615234 0.457031 0.474609C0.609375 0.322266 0.779297 0.205078 0.966797 0.123047C1.16602 0.0410156 1.37695 0 1.59961 0C1.82227 0 2.02734 0.0410156 2.21484 0.123047C2.41406 0.205078 2.58398 0.322266 2.72461 0.474609C2.87695 0.615234 2.99414 0.785156 3.07617 0.984375C3.1582 1.17188 3.19922 1.37695 3.19922 1.59961ZM0.351562 11.9004C0.351562 10.2129 0.457031 8.53125 0.667969 6.85547C0.691406 6.69141 0.761719 6.55078 0.878906 6.43359C1.00781 6.30469 1.17188 6.24023 1.37109 6.24023C1.54688 6.24023 1.69336 6.31055 1.81055 6.45117C1.92773 6.58008 1.98633 6.73242 1.98633 6.9082C1.98633 6.97852 1.96875 7.18945 1.93359 7.54102C1.91016 7.89258 1.875 8.31445 1.82812 8.80664C1.79297 9.28711 1.75781 9.80273 1.72266 10.3535C1.69922 10.8926 1.6875 11.3906 1.6875 11.8477C1.6875 12.4688 1.74609 12.9727 1.86328 13.3594C1.99219 13.7344 2.15039 14.0273 2.33789 14.2383C2.53711 14.4492 2.74219 14.5898 2.95312 14.6602C3.17578 14.7305 3.38672 14.7656 3.58594 14.7656C3.91406 14.7656 4.25391 14.6484 4.60547 14.4141C4.95703 14.1797 5.31445 13.8516 5.67773 13.4297C6.05273 13.0078 6.42773 12.5039 6.80273 11.918C7.17773 11.3203 7.54688 10.6582 7.91016 9.93164C7.96875 9.81445 8.05078 9.72656 8.15625 9.66797C8.26172 9.59766 8.37891 9.5625 8.50781 9.5625C8.69531 9.5625 8.84766 9.63281 8.96484 9.77344C9.09375 9.91406 9.1582 10.0664 9.1582 10.2305C9.1582 10.3477 9.13477 10.4473 9.08789 10.5293C8.94727 10.7988 8.77148 11.127 8.56055 11.5137C8.34961 11.9004 8.10938 12.2988 7.83984 12.709C7.57031 13.1191 7.27148 13.5293 6.94336 13.9395C6.62695 14.3379 6.28711 14.7012 5.92383 15.0293C5.56055 15.3457 5.17969 15.6035 4.78125 15.8027C4.38281 16.002 3.97852 16.1016 3.56836 16.1016C3.04102 16.1016 2.57812 15.9902 2.17969 15.7676C1.78125 15.5449 1.44141 15.2461 1.16016 14.8711C0.890625 14.4961 0.685547 14.0566 0.544922 13.5527C0.416016 13.0371 0.351562 12.4863 0.351562 11.9004ZM2.21484 1.59961C2.21484 1.43555 2.15039 1.29492 2.02148 1.17773C1.9043 1.04883 1.76367 0.984375 1.59961 0.984375C1.43555 0.984375 1.29492 1.04883 1.17773 1.17773C1.06055 1.29492 1.00195 1.43555 1.00195 1.59961C1.00195 1.76367 1.06055 1.9043 1.17773 2.02148C1.29492 2.13867 1.43555 2.19727 1.59961 2.19727C1.76367 2.19727 1.9043 2.13867 2.02148 2.02148C2.15039 1.9043 2.21484 1.76367 2.21484 1.59961Z" fill="white"/>
</svg>
