<svg width="27" height="12" viewBox="0 0 27 12" fill="none" xmlns="http://www.w3.org/2000/svg">
<path d="M18.8066 7.06445C18.8066 6.4668 18.8359 5.95117 18.8945 5.51758C18.9531 5.08398 18.9824 4.66797 18.9824 4.26953C18.9824 4.01172 18.9531 3.74219 18.8945 3.46094C18.8359 3.17969 18.7305 2.92773 18.5781 2.70508C18.4375 2.4707 18.2383 2.2832 17.9805 2.14258C17.7227 1.99023 17.3945 1.91406 16.9961 1.91406C16.6562 1.91406 16.2637 2.03125 15.8184 2.26562C15.3848 2.5 14.916 2.96289 14.4121 3.6543C14.2363 3.88867 14.043 4.19336 13.832 4.56836C13.6211 4.93164 13.3984 5.32422 13.1641 5.74609C12.9414 6.16797 12.7188 6.5957 12.4961 7.0293C12.2734 7.45117 12.0742 7.83789 11.8984 8.18945C11.9102 7.86133 11.9219 7.50977 11.9336 7.13477C11.957 6.75977 11.9746 6.39648 11.9863 6.04492C12.0098 5.69336 12.0273 5.36523 12.0391 5.06055C12.0625 4.75586 12.0742 4.50977 12.0742 4.32227C12.0742 3.99414 12.0391 3.68945 11.9688 3.4082C11.8984 3.11523 11.793 2.86328 11.6523 2.65234C11.5117 2.42969 11.3301 2.25391 11.1074 2.125C10.8965 1.99609 10.6387 1.93164 10.334 1.93164C10.0293 1.93164 9.69531 2.01953 9.33203 2.19531C8.96875 2.37109 8.61719 2.66406 8.27734 3.07422C8.07812 3.32031 7.83203 3.67773 7.53906 4.14648C7.25781 4.61523 6.96484 5.11328 6.66016 5.64062C6.36719 6.16797 6.08008 6.69531 5.79883 7.22266C5.5293 7.73828 5.30664 8.17188 5.13086 8.52344C5.18945 7.64453 5.24219 6.77148 5.28906 5.9043C5.34766 5.03711 5.37695 4.08203 5.37695 3.03906C5.37695 2.80469 5.35352 2.56445 5.30664 2.31836C5.25977 2.07227 5.18359 1.85547 5.07812 1.66797C4.97266 1.46875 4.82617 1.31055 4.63867 1.19336C4.46289 1.06445 4.24023 1 3.9707 1C3.51367 1 3.04492 1.29883 2.56445 1.89648C2.08398 2.48242 1.58008 3.40234 1.05273 4.65625C1.01758 4.75 1 4.83789 1 4.91992C1 5.0957 1.05859 5.25391 1.17578 5.39453C1.29297 5.52344 1.45117 5.58789 1.65039 5.58789C1.7793 5.58789 1.90234 5.55273 2.01953 5.48242C2.13672 5.41211 2.22461 5.3125 2.2832 5.18359C2.70508 4.16406 3.05078 3.44922 3.32031 3.03906C3.60156 2.62891 3.78906 2.41211 3.88281 2.38867C3.94141 2.43555 3.98828 2.58203 4.02344 2.82812C4.05859 3.07422 4.07031 3.34375 4.05859 3.63672C4.03516 4.1875 4.00586 4.7793 3.9707 5.41211C3.94727 6.04492 3.92383 6.64258 3.90039 7.20508C3.87695 7.75586 3.85352 8.22461 3.83008 8.61133C3.81836 8.99805 3.8125 9.20898 3.8125 9.24414C3.8125 9.58398 3.89453 9.85938 4.05859 10.0703C4.22266 10.2695 4.47461 10.3691 4.81445 10.3691C5.04883 10.3691 5.28906 10.2754 5.53516 10.0879C5.78125 9.91211 6.02734 9.57812 6.27344 9.08594C6.47266 8.67578 6.70703 8.21289 6.97656 7.69727C7.25781 7.18164 7.53906 6.67773 7.82031 6.18555C8.10156 5.69336 8.36523 5.24805 8.61133 4.84961C8.86914 4.43945 9.08008 4.12891 9.24414 3.91797C9.45508 3.64844 9.63672 3.4668 9.78906 3.37305C9.95312 3.2793 10.0996 3.23242 10.2285 3.23242C10.3691 3.23242 10.4922 3.30273 10.5977 3.44336C10.7031 3.57227 10.7559 3.78906 10.7559 4.09375C10.7559 4.23438 10.75 4.43945 10.7383 4.70898C10.7266 4.97852 10.7148 5.28906 10.7031 5.64062C10.6914 5.98047 10.6738 6.33789 10.6504 6.71289C10.627 7.08789 10.6094 7.45117 10.5977 7.80273C10.5859 8.1543 10.5742 8.47656 10.5625 8.76953C10.5508 9.0625 10.5449 9.29688 10.5449 9.47266C10.5449 9.8125 10.6211 10.0879 10.7734 10.2988C10.9375 10.5098 11.1719 10.6152 11.4766 10.6152C11.6172 10.6152 11.7461 10.5859 11.8633 10.5273C11.9805 10.4688 12.0977 10.3691 12.2148 10.2285C12.3438 10.0879 12.4727 9.89453 12.6016 9.64844C12.7422 9.40234 12.9121 9.0918 13.1113 8.7168C13.4629 8.03711 13.8086 7.36914 14.1484 6.71289C14.5 6.05664 14.8398 5.4707 15.168 4.95508C15.4961 4.43945 15.8125 4.0293 16.1172 3.72461C16.4336 3.4082 16.7324 3.25 17.0137 3.25C17.0488 3.25 17.1016 3.25586 17.1719 3.26758C17.2422 3.26758 17.3125 3.30273 17.3828 3.37305C17.4648 3.43164 17.5293 3.53711 17.5762 3.68945C17.6348 3.8418 17.6641 4.06445 17.6641 4.35742C17.6641 4.62695 17.6348 5.00781 17.5762 5.5C17.5176 5.98047 17.4883 6.50781 17.4883 7.08203C17.4883 7.51562 17.5234 7.93164 17.5938 8.33008C17.6641 8.72852 17.793 9.08008 17.9805 9.38477C18.1797 9.68945 18.4375 9.92969 18.7539 10.1055C19.082 10.293 19.5039 10.3867 20.0195 10.3867C20.5 10.3867 20.957 10.2754 21.3906 10.0527C21.8242 9.81836 22.2285 9.52539 22.6035 9.17383C22.9785 8.81055 23.3184 8.41797 23.623 7.99609C23.9395 7.57422 24.2148 7.17578 24.4492 6.80078C24.6836 6.41406 24.8711 6.07422 25.0117 5.78125C25.1523 5.47656 25.2461 5.27734 25.293 5.18359C25.3281 5.10156 25.3457 5.01953 25.3457 4.9375C25.3457 4.77344 25.2812 4.62109 25.1523 4.48047C25.0352 4.32812 24.877 4.25195 24.6777 4.25195C24.5488 4.25195 24.4316 4.28711 24.3262 4.35742C24.2207 4.42773 24.1387 4.52734 24.0801 4.65625C23.9863 4.86719 23.8633 5.125 23.7109 5.42969C23.5586 5.72266 23.3828 6.0332 23.1836 6.36133C22.9844 6.68945 22.7617 7.01758 22.5156 7.3457C22.2812 7.67383 22.0293 7.9668 21.7598 8.22461C21.4902 8.48242 21.209 8.69336 20.916 8.85742C20.623 9.00977 20.3242 9.08594 20.0195 9.08594V8.08594C20.1488 8.08594 20.2881 8.05489 20.4482 7.97266C20.6531 7.85545 20.8603 7.70097 21.0684 7.50195C21.2892 7.29067 21.5012 7.04598 21.7021 6.76465L21.709 6.75488L21.7158 6.74609C21.9436 6.44237 22.1479 6.14114 22.3291 5.84277C22.5185 5.53075 22.6826 5.23918 22.8232 4.96875C22.9684 4.67809 23.0819 4.43933 23.166 4.25L23.1699 4.24219C23.2964 3.96401 23.4932 3.71095 23.7715 3.52539L23.875 3.46191C24.1217 3.32239 24.3951 3.25195 24.6777 3.25195C25.1459 3.25195 25.5763 3.44062 25.8877 3.80469H25.8896C26.1582 4.09771 26.3457 4.48298 26.3457 4.9375C26.3457 5.16639 26.2956 5.38175 26.2119 5.57715L26.2002 5.60449L26.1875 5.63086C26.1489 5.70807 26.0619 5.89257 25.9199 6.2002L25.917 6.20703L25.9131 6.21387C25.7542 6.54491 25.5499 6.91471 25.3047 7.31934L25.2969 7.33105C25.0477 7.72964 24.7584 8.14596 24.4326 8.58105L24.4336 8.58203C24.0945 9.05146 23.7157 9.48776 23.2988 9.8916L23.2871 9.90332C22.8521 10.3111 22.3786 10.6557 21.8662 10.9326L21.8564 10.9375L21.8477 10.9424C21.2749 11.2365 20.6613 11.3867 20.0195 11.3867C19.3947 11.3867 18.7907 11.2738 18.2686 10.9785V10.9795C18.267 10.9786 18.2653 10.9775 18.2637 10.9766C18.2618 10.9755 18.2597 10.9747 18.2578 10.9736V10.9727C17.8036 10.7181 17.4288 10.3679 17.1436 9.93164L17.1357 9.9209L17.1289 9.90918C16.8673 9.48405 16.6987 9.01027 16.6094 8.50391C16.5282 8.04417 16.4883 7.56976 16.4883 7.08203C16.4883 6.47568 16.519 5.90822 16.583 5.38184L16.6455 4.76855C16.6497 4.71367 16.6515 4.66219 16.6543 4.61426C16.46 4.83596 16.2451 5.12539 16.0117 5.49219C15.6995 5.98277 15.3724 6.54682 15.0303 7.18555L15.0293 7.18457C14.6917 7.83657 14.3492 8.50064 14 9.17578L13.9941 9.18555C13.7922 9.56564 13.6173 9.88632 13.4697 10.1445C13.329 10.4091 13.1678 10.6574 12.9814 10.8682L12.9834 10.8691C12.8106 11.0765 12.5898 11.2823 12.3105 11.4219C12.0445 11.5549 11.7608 11.6152 11.4766 11.6152C10.9125 11.6152 10.3661 11.4037 9.98438 10.9131L9.97363 10.8984L9.96289 10.8848C9.65462 10.4579 9.54492 9.95864 9.54492 9.47266C9.54492 9.27771 9.55153 9.02827 9.56348 8.72949C9.57509 8.43917 9.58698 8.11923 9.59863 7.76953C9.6107 7.40765 9.62834 7.03442 9.65234 6.65039C9.67525 6.28388 9.69274 5.93596 9.7041 5.60645C9.71179 5.37592 9.71981 5.16235 9.72754 4.96582C9.64728 5.08633 9.55701 5.22432 9.45801 5.38184C9.22015 5.76715 8.96361 6.20016 8.68848 6.68164C8.41067 7.16781 8.13265 7.66584 7.85449 8.17578C7.59182 8.67858 7.36481 9.12726 7.17285 9.52246L7.16797 9.5332C6.90455 10.0601 6.57498 10.5611 6.13965 10.8818L6.1416 10.8838C5.77699 11.1616 5.32873 11.3691 4.81445 11.3691C4.27732 11.3691 3.69736 11.204 3.28711 10.7061L3.27734 10.6953L3.26953 10.6846C2.93558 10.2552 2.8125 9.7451 2.8125 9.24414C2.8125 9.18907 2.81878 8.95401 2.83008 8.58105L2.83105 8.56641L2.83203 8.55078C2.85499 8.17197 2.87809 7.70914 2.90137 7.16211C2.91705 6.78578 2.93158 6.3935 2.94727 5.98535C2.83171 6.12287 2.69467 6.24353 2.53418 6.33984C2.27131 6.49756 1.97157 6.58789 1.65039 6.58789C1.21404 6.58789 0.770325 6.43564 0.435547 6.06738L0.420898 6.05078L0.407227 6.03516C0.147004 5.72289 0 5.33994 0 4.91992C0 4.69479 0.0479451 4.48673 0.116211 4.30469L0.123047 4.28711L0.130859 4.26855C0.669065 2.98882 1.21541 1.96679 1.78516 1.26953L1.99805 1.02051C2.51426 0.453369 3.16973 0 3.9707 0C4.37946 0 4.79885 0.0956593 5.16895 0.345703L5.29297 0.428711C5.57424 0.631426 5.79904 0.892546 5.96191 1.2002H5.95996C6.11964 1.49012 6.22672 1.80375 6.28906 2.13086C6.34689 2.43443 6.37695 2.73776 6.37695 3.03906C6.37695 3.42823 6.37036 3.80614 6.3623 4.17285C6.47099 3.989 6.5761 3.80774 6.68164 3.63184L6.69141 3.61621C6.99243 3.1346 7.26326 2.73778 7.5 2.44531L7.50684 2.43652C7.91021 1.94969 8.36995 1.54969 8.89648 1.29492C9.3534 1.07385 9.83777 0.931641 10.334 0.931641C10.7722 0.931641 11.212 1.02424 11.6074 1.25977H11.6084C11.6152 1.26371 11.6221 1.26748 11.6289 1.27148H11.6279C11.9849 1.48233 12.2773 1.76858 12.498 2.11816H12.4961C12.706 2.43866 12.8505 2.79612 12.9414 3.1748H12.9395C12.9987 3.41402 13.036 3.66008 13.0557 3.91211C13.2429 3.58932 13.4251 3.30453 13.6035 3.06543L13.8066 2.7959C14.2845 2.18268 14.7932 1.68282 15.3428 1.38574L15.3525 1.38086C15.8777 1.10446 16.4346 0.914062 16.9961 0.914062C17.5045 0.914062 18.0107 1.0094 18.458 1.26465H18.459C18.469 1.27011 18.4793 1.27567 18.4893 1.28125H18.4883C18.8603 1.48988 19.1727 1.77614 19.4033 2.14062L19.4863 2.26953C19.6722 2.57368 19.7998 2.90527 19.873 3.25684C19.9441 3.59766 19.9824 3.93593 19.9824 4.26953C19.9824 4.71682 19.9497 5.1777 19.8857 5.65137C19.8349 6.02786 19.8066 6.49661 19.8066 7.06445C19.8066 7.27875 19.8165 7.49329 19.8369 7.70801C19.8523 7.86915 19.8815 7.98834 19.9111 8.0752V8.07617C19.9306 8.07971 19.9653 8.08594 20.0195 8.08594V9.08594C19.7383 9.08594 19.5156 9.02734 19.3516 8.91016C19.1875 8.79297 19.0645 8.64062 18.9824 8.45312C18.9121 8.26562 18.8652 8.04883 18.8418 7.80273C18.8184 7.55664 18.8066 7.31055 18.8066 7.06445Z" fill="black"/>
</svg>
