<svg width="10" height="43" viewBox="0 0 10 43" fill="none" xmlns="http://www.w3.org/2000/svg">
<path d="M1.33594 26.4902C2.20312 26.1035 2.98828 25.6582 3.69141 25.1543C4.40625 24.6504 5.03906 24.123 5.58984 23.5723C6.15234 23.0098 6.62695 22.4414 7.01367 21.8672C7.41211 21.2812 7.72852 20.7246 7.96289 20.1973C8.06836 19.9395 8.26758 19.8105 8.56055 19.8105C8.75977 19.8105 8.91797 19.8809 9.03516 20.0215C9.16406 20.1504 9.22852 20.2969 9.22852 20.4609C9.22852 20.5547 9.21094 20.6426 9.17578 20.7246C8.91797 21.2988 8.58984 21.8965 8.19141 22.5176C7.79297 23.127 7.30664 23.7305 6.73242 24.3281C6.16992 24.9141 5.50781 25.4824 4.74609 26.0332C3.98438 26.584 3.11133 27.0879 2.12695 27.5449C2.75977 28.2012 3.31055 28.9277 3.7793 29.7246C4.24805 30.5332 4.63477 31.3711 4.93945 32.2383C5.25586 33.1055 5.49023 33.9785 5.64258 34.8574C5.80664 35.748 5.88867 36.5977 5.88867 37.4062C5.88867 38.1445 5.81836 38.8359 5.67773 39.4805C5.54883 40.1367 5.34961 40.7051 5.08008 41.1855C4.82227 41.666 4.50586 42.041 4.13086 42.3105C3.75586 42.5918 3.32812 42.7324 2.84766 42.7324C2.14453 42.7324 1.59961 42.4688 1.21289 41.9414C0.826172 41.4258 0.539062 40.7051 0.351562 39.7793C0.175781 38.8652 0.0703125 37.7812 0.0351562 36.5273C0.0117188 35.2852 0 33.9316 0 32.4668C0 31.7402 0 30.8906 0 29.918C0 28.957 0 27.9199 0 26.8066C0.0117188 25.7051 0.0175781 24.5508 0.0175781 23.3438C0.0292969 22.125 0.0410156 20.9062 0.0527344 19.6875C0.0644531 18.4688 0.0761719 17.2734 0.0878906 16.1016C0.0996094 14.918 0.117188 13.7988 0.140625 12.7441C0.175781 10.7285 0.246094 8.92969 0.351562 7.34766C0.457031 5.76562 0.626953 4.42969 0.861328 3.33984C1.0957 2.25 1.41211 1.42383 1.81055 0.861328C2.2207 0.287109 2.73633 0 3.35742 0C3.84961 0 4.26562 0.140625 4.60547 0.421875C4.94531 0.691406 5.2207 1.06055 5.43164 1.5293C5.64258 1.98633 5.79492 2.52539 5.88867 3.14648C5.98242 3.76758 6.0293 4.41797 6.0293 5.09766C6.0293 6.52734 5.90625 7.91016 5.66016 9.24609C5.41406 10.582 5.08008 11.877 4.6582 13.1309C4.23633 14.3848 3.73828 15.6094 3.16406 16.8047C2.60156 18 1.99805 19.1777 1.35352 20.3379C1.35352 20.8184 1.35352 21.3398 1.35352 21.9023C1.35352 22.4531 1.35352 23.0098 1.35352 23.5723C1.35352 24.123 1.34766 24.6562 1.33594 25.1719C1.33594 25.6758 1.33594 26.1152 1.33594 26.4902ZM1.38867 17.6309C1.86914 16.7285 2.30859 15.7793 2.70703 14.7832C3.11719 13.7754 3.46875 12.7383 3.76172 11.6719C4.05469 10.6055 4.2832 9.51562 4.44727 8.40234C4.61133 7.28906 4.69336 6.16992 4.69336 5.04492C4.69336 4.48242 4.66406 3.97266 4.60547 3.51562C4.55859 3.05859 4.47656 2.67188 4.35938 2.35547C4.25391 2.02734 4.11328 1.77539 3.9375 1.59961C3.77344 1.41211 3.58008 1.31836 3.35742 1.31836C3.12305 1.31836 2.91797 1.45898 2.74219 1.74023C2.56641 2.02148 2.41406 2.39648 2.28516 2.86523C2.15625 3.33398 2.04492 3.87305 1.95117 4.48242C1.86914 5.0918 1.79883 5.73047 1.74023 6.39844C1.68164 7.05469 1.63477 7.7168 1.59961 8.38477C1.56445 9.04102 1.53516 9.66211 1.51172 10.248C1.5 10.8223 1.48828 11.332 1.47656 11.7773C1.47656 12.2227 1.47656 12.5566 1.47656 12.7793C1.46484 13.248 1.45312 13.6641 1.44141 14.0273C1.44141 14.3906 1.43555 14.748 1.42383 15.0996C1.41211 15.4512 1.40039 15.8262 1.38867 16.2246C1.38867 16.623 1.38867 17.0918 1.38867 17.6309ZM1.33594 28.6523C1.33594 29.3906 1.33008 30.0762 1.31836 30.709C1.31836 31.3535 1.31836 31.9395 1.31836 32.4668C1.31836 33.5566 1.32422 34.6348 1.33594 35.7012C1.34766 36.7676 1.40039 37.7227 1.49414 38.5664C1.59961 39.4219 1.75195 40.1074 1.95117 40.623C2.16211 41.1504 2.46094 41.4141 2.84766 41.4141C3.19922 41.4141 3.48633 41.2559 3.70898 40.9395C3.93164 40.623 4.10156 40.248 4.21875 39.8145C4.34766 39.3809 4.43555 38.9355 4.48242 38.4785C4.5293 38.0332 4.55273 37.6699 4.55273 37.3887C4.55273 36.6738 4.48242 35.9238 4.3418 35.1387C4.21289 34.3535 4.00781 33.5742 3.72656 32.8008C3.45703 32.0391 3.12305 31.3008 2.72461 30.5859C2.32617 29.8711 1.86328 29.2266 1.33594 28.6523Z" fill="white"/>
</svg>
