<svg width="12" height="45" viewBox="0 0 12 45" fill="none" xmlns="http://www.w3.org/2000/svg">
<path d="M7.0293 6.09766C7.0293 5.41797 6.98242 4.76758 6.88867 4.14648C6.79492 3.52539 6.64258 2.98633 6.43164 2.5293C6.2207 2.06055 5.94531 1.69141 5.60547 1.42188C5.26562 1.14062 4.84961 1 4.35742 1C3.73633 1 3.2207 1.28711 2.81055 1.86133C2.41211 2.42383 2.0957 3.25 1.86133 4.33984C1.62695 5.42969 1.45703 6.76562 1.35156 8.34766C1.24609 9.92969 1.17578 11.7285 1.14062 13.7441C1.11719 14.7988 1.09961 15.918 1.08789 17.1016C1.07617 18.2734 1.06445 19.4688 1.05273 20.6875L1.01758 24.3438C1.01758 25.5508 1.01172 26.7051 1 27.8066V33.4668C1 34.9316 1.01172 36.2852 1.03516 37.5273C1.07031 38.7812 1.17578 39.8652 1.35156 40.7793C1.53906 41.7051 1.82617 42.4258 2.21289 42.9414C2.59961 43.4688 3.14453 43.7324 3.84766 43.7324C4.32812 43.7324 4.75586 43.5918 5.13086 43.3105C5.50586 43.041 5.82227 42.666 6.08008 42.1855C6.34961 41.7051 6.54883 41.1367 6.67773 40.4805C6.81836 39.8359 6.88867 39.1445 6.88867 38.4062C6.88867 37.5977 6.80664 36.748 6.64258 35.8574C6.49023 34.9785 6.25586 34.1055 5.93945 33.2383C5.63477 32.3711 5.24805 31.5332 4.7793 30.7246C4.31055 29.9277 3.75977 29.2012 3.12695 28.5449C4.11133 28.0879 4.98438 27.584 5.74609 27.0332C6.50781 26.4824 7.16992 25.9141 7.73242 25.3281C8.30664 24.7305 8.79297 24.127 9.19141 23.5176C9.58984 22.8965 9.91797 22.2988 10.1758 21.7246C10.2109 21.6426 10.2285 21.5547 10.2285 21.4609C10.2285 21.2969 10.1641 21.1504 10.0352 21.0215C9.91797 20.8809 9.75977 20.8105 9.56055 20.8105C9.26758 20.8105 9.06836 20.9395 8.96289 21.1973C8.72852 21.7246 8.41211 22.2812 8.01367 22.8672C7.62695 23.4414 7.15234 24.0098 6.58984 24.5723C6.03906 25.123 5.40625 25.6504 4.69141 26.1543C3.98828 26.6582 3.20312 27.1035 2.33594 27.4902V26.1719C2.34766 25.6562 2.35352 25.123 2.35352 24.5723V21.3379C2.99805 20.1777 3.60156 19 4.16406 17.8047C4.73828 16.6094 5.23633 15.3848 5.6582 14.1309C6.08008 12.877 6.41406 11.582 6.66016 10.2461C6.90625 8.91016 7.0293 7.52734 7.0293 6.09766ZM2.31836 33.4668V31.709C2.33008 31.0762 2.33594 30.3906 2.33594 29.6523C2.86328 30.2266 3.32617 30.8711 3.72461 31.5859C4.12305 32.3008 4.45703 33.0391 4.72656 33.8008C5.00781 34.5742 5.21289 35.3535 5.3418 36.1387C5.48242 36.9238 5.55273 37.6738 5.55273 38.3887C5.55273 38.6699 5.5293 39.0332 5.48242 39.4785C5.43555 39.9355 5.34766 40.3809 5.21875 40.8145C5.10156 41.248 4.93164 41.623 4.70898 41.9395C4.48633 42.2559 4.19922 42.4141 3.84766 42.4141C3.46094 42.4141 3.16211 42.1504 2.95117 41.623C2.75195 41.1074 2.59961 40.4219 2.49414 39.5664C2.40039 38.7227 2.34766 37.7676 2.33594 36.7012C2.32422 35.6348 2.31836 34.5566 2.31836 33.4668ZM4.69336 6.04492C4.69336 5.51604 4.66544 5.04944 4.61328 4.64258L4.6123 4.62988L4.61035 4.61719C4.56923 4.21651 4.50132 3.91777 4.42188 3.70312L4.41406 3.68262L4.40723 3.66113C4.40659 3.65916 4.40591 3.65722 4.40527 3.65527C4.35359 3.78798 4.29999 3.94552 4.24902 4.13086C4.13391 4.54955 4.03107 5.04341 3.94238 5.61621L3.83105 6.52832C3.79678 6.8397 3.76499 7.15868 3.73633 7.48535V7.4873C3.67883 8.13126 3.63316 8.78149 3.59863 9.4375V9.43848C3.5641 10.083 3.53384 10.6927 3.51074 11.2676C3.49899 11.8432 3.48835 12.356 3.47656 12.8037V13.4775C3.58948 13.124 3.69875 12.7679 3.79785 12.4072C4.07985 11.3807 4.29977 10.3305 4.45801 9.25684C4.61496 8.19181 4.69336 7.12112 4.69336 6.04492ZM3.31836 33.4668C3.31836 34.5531 3.32426 35.6278 3.33594 36.6904C3.34738 37.7315 3.399 38.6525 3.48828 39.4561C3.58764 40.2568 3.72438 40.8454 3.87988 41.252L3.91309 41.3281C4.04852 41.1265 4.16641 40.8737 4.25293 40.5537L4.25684 40.541L4.25977 40.5293C4.37059 40.1565 4.44668 39.7728 4.4873 39.377L4.48828 39.374C4.53336 38.9457 4.55273 38.6208 4.55273 38.3887C4.55273 37.7394 4.48875 37.0488 4.35742 36.3154L4.35645 36.3076L4.35547 36.3008C4.23696 35.579 4.04785 34.8596 3.78711 34.1426L3.78418 34.1348C3.64731 33.748 3.49122 33.3675 3.31836 32.9932V33.4668ZM8.0293 6.09766C8.0293 7.58494 7.90122 9.029 7.64355 10.4277C7.3891 11.809 7.04381 13.1502 6.60645 14.4502C6.17237 15.7403 5.65871 16.9998 5.06836 18.2295L5.06934 18.2305C4.53452 19.367 3.96112 20.4868 3.35352 21.5918V24.5723C3.35352 25.0068 3.34804 25.4309 3.34082 25.8447C3.60874 25.6839 3.86535 25.5167 4.10938 25.3418L4.11523 25.3369L4.60449 24.9775C5.07776 24.6154 5.50349 24.2446 5.88281 23.8652C6.40643 23.3416 6.8386 22.8223 7.18457 22.3086L7.18652 22.3047C7.55865 21.7574 7.84343 21.2532 8.04883 20.791C8.16631 20.5168 8.35874 20.2548 8.64844 20.0674C8.94408 19.8762 9.26676 19.8105 9.56055 19.8105C9.99859 19.8105 10.4215 19.9713 10.7412 20.3145H10.7422C11.0358 20.6081 11.2285 21.001 11.2285 21.4609C11.2285 21.6831 11.1858 21.9055 11.0947 22.1182L11.0918 22.126L11.0879 22.1338C10.8067 22.7601 10.4539 23.4018 10.0332 24.0576L10.0283 24.0645C9.5917 24.7322 9.06538 25.3842 8.4541 26.0205C7.84421 26.6558 7.13495 27.2632 6.33203 27.8438C5.83415 28.2037 5.29575 28.5416 4.71875 28.8594C4.9773 29.1921 5.2204 29.5377 5.44629 29.8975L5.6416 30.2178L5.64453 30.2227C6.14209 31.0809 6.55376 31.9724 6.87891 32.8955L7.00098 33.2412C7.27502 34.0457 7.48352 34.8574 7.62598 35.6758C7.79976 36.6192 7.88867 37.5302 7.88867 38.4062C7.88867 39.1999 7.81263 39.956 7.6582 40.6719L7.65918 40.6729C7.51406 41.4116 7.28325 42.0846 6.95215 42.6748L6.95117 42.6738C6.63545 43.2574 6.22925 43.7533 5.71484 44.123L5.71387 44.1211C5.16484 44.5277 4.53203 44.7324 3.84766 44.7324C2.854 44.7324 1.99728 44.339 1.40625 43.5332V43.5322C0.902674 42.8569 0.574526 41.982 0.371094 40.9775L0.369141 40.9678C0.180413 39.9862 0.0713451 38.846 0.0351562 37.5557V37.5459C0.0115854 36.2965 0 34.9367 0 33.4668V27.7959L0.0136719 26.1094C0.0165915 25.5341 0.0175781 24.9456 0.0175781 24.3438V24.291C0.0176001 24.2887 0.0185327 24.2865 0.0185547 24.2842V24.1914C0.0185763 24.1892 0.0195096 24.1868 0.0195312 24.1846V24.0918C0.0195541 24.0894 0.0204849 24.0864 0.0205078 24.084V23.9844C0.0205292 23.9821 0.0214629 23.9798 0.0214844 23.9775V23.8838C0.0215058 23.8816 0.0224395 23.8792 0.0224609 23.877V23.7842C0.0224829 23.7819 0.0234156 23.7796 0.0234375 23.7773V23.6846C0.0234604 23.6822 0.0243912 23.6791 0.0244141 23.6768V23.584C0.0244359 23.5817 0.0253688 23.5794 0.0253906 23.5771V23.4775C0.0254135 23.4752 0.0263443 23.4721 0.0263672 23.4697V23.377C0.0263891 23.3747 0.0273218 23.3724 0.0273438 23.3701V23.2773C0.0273654 23.2751 0.0282987 23.2728 0.0283203 23.2705V23.1777C0.0283432 23.1754 0.029274 23.1723 0.0292969 23.1699V23.0703C0.0293183 23.0681 0.030252 23.0657 0.0302734 23.0635V22.9697C0.0302949 22.9675 0.0312286 22.9651 0.03125 22.9629V22.8701C0.0312719 22.8678 0.0322046 22.8656 0.0322266 22.8633V22.7705C0.0322495 22.7681 0.0331802 22.7651 0.0332031 22.7627V22.6699C0.033225 22.6677 0.0341579 22.6654 0.0341797 22.6631V22.5635C0.0342026 22.5611 0.0351334 22.558 0.0351562 22.5557V22.4629C0.0351782 22.4606 0.0361109 22.4583 0.0361328 22.4561V22.3633C0.0361544 22.361 0.0370878 22.3587 0.0371094 22.3564V22.2637C0.0371323 22.2613 0.038063 22.2582 0.0380859 22.2559V22.1562C0.0381074 22.154 0.0390411 22.1516 0.0390625 22.1494V22.0557C0.0390839 22.0534 0.0400176 22.0511 0.0400391 22.0488V21.9561C0.040061 21.9538 0.0409937 21.9515 0.0410156 21.9492V21.8564C0.0410385 21.8541 0.0419693 21.851 0.0419922 21.8486V21.7559C0.042014 21.7536 0.0429469 21.7513 0.0429688 21.749V21.6494C0.0429916 21.647 0.0439224 21.644 0.0439453 21.6416V21.5488C0.0439673 21.5465 0.0448999 21.5443 0.0449219 21.542V21.4492C0.0449435 21.447 0.0458768 21.4446 0.0458984 21.4424V21.3496C0.0459213 21.3472 0.0468521 21.3442 0.046875 21.3418V21.2422C0.0468964 21.24 0.0478301 21.2376 0.0478516 21.2354V21.1416C0.047873 21.1394 0.0488067 21.137 0.0488281 21.1348V21.042C0.0488501 21.0397 0.0497827 21.0374 0.0498047 21.0352V20.9424C0.0498276 20.94 0.0507584 20.937 0.0507812 20.9346V20.8418C0.0508031 20.8395 0.051736 20.8372 0.0517578 20.835V20.7354C0.0517807 20.733 0.0527115 20.7299 0.0527344 20.7275V20.6777C0.064453 19.459 0.0761718 18.2637 0.0878906 17.0918C0.0996452 15.9046 0.117086 14.7809 0.140625 13.7217C0.176023 11.6959 0.246805 9.88194 0.353516 8.28125C0.460973 6.6694 0.636004 5.28217 0.883789 4.12988C1.13115 2.97967 1.48403 2.00341 1.99414 1.2832L1.99707 1.28027C2.56545 0.484536 3.36578 0 4.35742 0C5.0537 0 5.70308 0.204401 6.24316 0.651367L6.24219 0.652344C6.71814 1.03456 7.07864 1.53281 7.33984 2.11035L7.43262 2.32422C7.6408 2.83063 7.7865 3.39137 7.87793 3.99707C7.97972 4.6714 8.0293 5.37204 8.0293 6.09766ZM5.69336 6.04492C5.69336 7.16992 5.61133 8.28906 5.44727 9.40234C5.2832 10.5156 5.05469 11.6055 4.76172 12.6719C4.46875 13.7383 4.11719 14.7754 3.70703 15.7832C3.30859 16.7793 2.86914 17.7285 2.38867 18.6309V17.2246C2.40039 16.8262 2.41211 16.4512 2.42383 16.0996C2.43555 15.748 2.44141 15.3906 2.44141 15.0273C2.45312 14.6641 2.46484 14.248 2.47656 13.7793V12.7773C2.48828 12.332 2.5 11.8223 2.51172 11.248C2.53516 10.6621 2.56445 10.041 2.59961 9.38477C2.63477 8.7168 2.68164 8.05469 2.74023 7.39844C2.79883 6.73047 2.86914 6.0918 2.95117 5.48242C3.04492 4.87305 3.15625 4.33398 3.28516 3.86523C3.41406 3.39648 3.56641 3.02148 3.74219 2.74023C3.91797 2.45898 4.12305 2.31836 4.35742 2.31836C4.58008 2.31836 4.77344 2.41211 4.9375 2.59961C5.11328 2.77539 5.25391 3.02734 5.35938 3.35547C5.47656 3.67188 5.55859 4.05859 5.60547 4.51562C5.66406 4.97266 5.69336 5.48242 5.69336 6.04492Z" fill="black"/>
</svg>
