<svg width="14" height="9" viewBox="0 0 14 9" fill="none" xmlns="http://www.w3.org/2000/svg">
<path d="M13.9043 3.65625C13.8574 3.75 13.7578 3.94922 13.6055 4.25391C13.4648 4.54688 13.2773 4.88672 13.043 5.27344C12.8203 5.66016 12.5566 6.06445 12.252 6.48633C11.9473 6.9082 11.6074 7.29492 11.2324 7.64648C10.8574 7.99805 10.4531 8.29102 10.0195 8.52539C9.58594 8.74805 9.12891 8.85938 8.64844 8.85938C7.96875 8.85938 7.39453 8.64258 6.92578 8.20898C6.46875 7.77539 6.13477 7.23047 5.92383 6.57422C5.52539 7.24219 5.05078 7.77539 4.5 8.17383C3.94922 8.56055 3.39844 8.75391 2.84766 8.75391C2.41406 8.75391 2.02148 8.67773 1.66992 8.52539C1.31836 8.36133 1.01953 8.13867 0.773438 7.85742C0.527344 7.56445 0.333984 7.22461 0.193359 6.83789C0.0644531 6.45117 0 6.0293 0 5.57227C0 4.6582 0.152344 3.85547 0.457031 3.16406C0.773438 2.46094 1.17188 1.875 1.65234 1.40625C2.13281 0.9375 2.66016 0.585938 3.23438 0.351562C3.82031 0.117188 4.38281 0 4.92188 0C5.28516 0 5.61914 0.0527344 5.92383 0.158203C6.22852 0.251953 6.48633 0.357422 6.69727 0.474609C6.91992 0.591797 7.08984 0.703125 7.20703 0.808594C7.32422 0.902344 7.38867 0.955078 7.40039 0.966797C7.5293 1.11914 7.59375 1.27734 7.59375 1.44141C7.59375 1.61719 7.5293 1.77539 7.40039 1.91602C7.27148 2.04492 7.11914 2.10938 6.94336 2.10938C6.75586 2.10938 6.59766 2.04492 6.46875 1.91602C6.44531 1.89258 6.39258 1.85156 6.31055 1.79297C6.22852 1.72266 6.11719 1.65234 5.97656 1.58203C5.83594 1.51172 5.66602 1.45312 5.4668 1.40625C5.2793 1.34766 5.0625 1.31836 4.81641 1.31836C4.45312 1.31836 4.06641 1.40039 3.65625 1.56445C3.24609 1.72852 2.87109 1.98633 2.53125 2.33789C2.19141 2.67773 1.9043 3.11133 1.66992 3.63867C1.44727 4.1543 1.33594 4.76953 1.33594 5.48438C1.33594 5.70703 1.35938 5.93555 1.40625 6.16992C1.45312 6.39258 1.53516 6.59766 1.65234 6.78516C1.76953 6.97266 1.92773 7.125 2.12695 7.24219C2.32617 7.35938 2.57227 7.41797 2.86523 7.41797C3.07617 7.41797 3.31641 7.34766 3.58594 7.20703C3.86719 7.06641 4.13086 6.84961 4.37695 6.55664C4.63477 6.26367 4.86328 5.89453 5.0625 5.44922C5.27344 5.00391 5.41992 4.47656 5.50195 3.86719C5.52539 3.70312 5.60156 3.56836 5.73047 3.46289C5.85938 3.3457 6.01172 3.28711 6.1875 3.28711C6.35156 3.28711 6.49219 3.35156 6.60938 3.48047C6.73828 3.60938 6.80859 3.75586 6.82031 3.91992C6.83203 4.14258 6.85547 4.45898 6.89062 4.86914C6.92578 5.26758 7.00195 5.66602 7.11914 6.06445C7.24805 6.46289 7.43555 6.80859 7.68164 7.10156C7.92773 7.39453 8.26758 7.54102 8.70117 7.54102C8.98242 7.54102 9.25781 7.46484 9.52734 7.3125C9.80859 7.16016 10.0781 6.96094 10.3359 6.71484C10.6055 6.45703 10.8574 6.16992 11.0918 5.85352C11.3379 5.52539 11.5605 5.19727 11.7598 4.86914C11.959 4.54102 12.1348 4.22461 12.2871 3.91992C12.4395 3.61523 12.5684 3.35156 12.6738 3.12891C12.7324 3 12.8145 2.90039 12.9199 2.83008C13.0371 2.75977 13.1602 2.72461 13.2891 2.72461C13.4883 2.72461 13.6465 2.80078 13.7637 2.95312C13.8926 3.09375 13.957 3.24609 13.957 3.41016C13.957 3.49219 13.9395 3.57422 13.9043 3.65625Z" fill="white"/>
</svg>
