<svg width="14" height="9" viewBox="0 0 14 9" fill="none" xmlns="http://www.w3.org/2000/svg">
<path d="M5.97656 6.57422C5.56641 7.24219 5.08594 7.76953 4.53516 8.15625C3.99609 8.54297 3.45117 8.73633 2.90039 8.73633C2.45508 8.73633 2.05664 8.6543 1.70508 8.49023C1.35352 8.32617 1.04883 8.09766 0.791016 7.80469C0.533203 7.5 0.333984 7.13672 0.193359 6.71484C0.0644531 6.29297 0 5.81836 0 5.29102C0 4.4707 0.0761719 3.74414 0.228516 3.11133C0.392578 2.47852 0.568359 1.95117 0.755859 1.5293C0.943359 1.0957 1.11914 0.767578 1.2832 0.544922C1.44727 0.322266 1.5293 0.210938 1.5293 0.210938C1.58789 0.140625 1.6582 0.0878906 1.74023 0.0527344C1.83398 0.0175781 1.92773 0 2.02148 0C2.20898 0 2.36133 0.0703125 2.47852 0.210938C2.60742 0.339844 2.67188 0.492188 2.67188 0.667969C2.67188 0.738281 2.6543 0.808594 2.61914 0.878906C2.5957 0.949219 2.56641 1.01953 2.53125 1.08984C2.47266 1.19531 2.37891 1.35938 2.25 1.58203C2.12109 1.79297 1.98633 2.07422 1.8457 2.42578C1.70508 2.77734 1.58203 3.19336 1.47656 3.67383C1.37109 4.14258 1.31836 4.68164 1.31836 5.29102C1.31836 5.98242 1.45312 6.50977 1.72266 6.87305C2.00391 7.22461 2.39648 7.40039 2.90039 7.40039C3.11133 7.40039 3.35156 7.33594 3.62109 7.20703C3.90234 7.06641 4.17188 6.85547 4.42969 6.57422C4.69922 6.29297 4.93359 5.93555 5.13281 5.50195C5.33203 5.06836 5.46094 4.55859 5.51953 3.97266L5.7832 0.949219C5.80664 0.773438 5.88281 0.626953 6.01172 0.509766C6.14062 0.392578 6.29297 0.333984 6.46875 0.333984C6.66797 0.333984 6.82617 0.410156 6.94336 0.5625C7.06055 0.703125 7.11914 0.867188 7.11914 1.05469L6.89062 3.97266C6.86719 4.21875 6.87305 4.54102 6.9082 4.93945C6.95508 5.33789 7.04297 5.73047 7.17188 6.11719C7.30078 6.50391 7.49414 6.83789 7.75195 7.11914C8.00977 7.38867 8.34961 7.52344 8.77148 7.52344C9.07617 7.52344 9.375 7.44727 9.66797 7.29492C9.96094 7.13086 10.2422 6.91992 10.5117 6.66211C10.7812 6.4043 11.0273 6.11719 11.25 5.80078C11.4844 5.47266 11.6953 5.14453 11.8828 4.81641C12.082 4.48828 12.252 4.17773 12.3926 3.88477C12.5332 3.58008 12.6504 3.32227 12.7441 3.11133C12.8027 2.98242 12.8848 2.88281 12.9902 2.8125C13.0957 2.74219 13.2129 2.70703 13.3418 2.70703C13.5527 2.70703 13.7168 2.77734 13.834 2.91797C13.9512 3.05859 14.0098 3.21094 14.0098 3.375C14.0098 3.46875 13.9922 3.55664 13.957 3.63867C13.9102 3.73242 13.8164 3.93164 13.6758 4.23633C13.5469 4.5293 13.3711 4.86914 13.1484 5.25586C12.9375 5.63086 12.6797 6.0293 12.375 6.45117C12.0703 6.87305 11.7305 7.26562 11.3555 7.62891C10.9805 7.98047 10.5703 8.27344 10.125 8.50781C9.69141 8.73047 9.22266 8.8418 8.71875 8.8418C8.02734 8.8418 7.45312 8.64844 6.99609 8.26172C6.53906 7.86328 6.19922 7.30078 5.97656 6.57422Z" fill="white"/>
</svg>
