<svg width="12" height="19" viewBox="0 0 12 19" fill="none" xmlns="http://www.w3.org/2000/svg">
<path d="M2.6875 12.8477C2.6875 12.3906 2.69922 11.8926 2.72266 11.3535C2.75781 10.8027 2.79297 10.2871 2.82812 9.80664C2.875 9.31445 2.91016 8.89258 2.93359 8.54102C2.96875 8.18945 2.98633 7.97852 2.98633 7.9082C2.98633 7.73242 2.92773 7.58008 2.81055 7.45117C2.69336 7.31055 2.54688 7.24023 2.37109 7.24023C2.17188 7.24023 2.00781 7.30469 1.87891 7.43359C1.76172 7.55078 1.69141 7.69141 1.66797 7.85547C1.45703 9.53125 1.35156 11.2129 1.35156 12.9004C1.35156 13.4863 1.41602 14.0371 1.54492 14.5527C1.68555 15.0566 1.89062 15.4961 2.16016 15.8711C2.44141 16.2461 2.78125 16.5449 3.17969 16.7676C3.57812 16.9902 4.04102 17.1016 4.56836 17.1016C4.97852 17.1016 5.38281 17.002 5.78125 16.8027C6.17969 16.6035 6.56055 16.3457 6.92383 16.0293C7.28711 15.7012 7.62695 15.3379 7.94336 14.9395C8.27148 14.5293 8.57031 14.1191 8.83984 13.709C9.10938 13.2988 9.34961 12.9004 9.56055 12.5137C9.77148 12.127 9.94727 11.7988 10.0879 11.5293C10.1348 11.4473 10.1582 11.3477 10.1582 11.2305C10.1582 11.0664 10.0938 10.9141 9.96484 10.7734C9.84766 10.6328 9.69531 10.5625 9.50781 10.5625C9.37891 10.5625 9.26172 10.5977 9.15625 10.668C9.05078 10.7266 8.96875 10.8145 8.91016 10.9316C8.54688 11.6582 8.17773 12.3203 7.80273 12.918C7.42773 13.5039 7.05273 14.0078 6.67773 14.4297C6.31445 14.8516 5.95703 15.1797 5.60547 15.4141C5.25391 15.6484 4.91406 15.7656 4.58594 15.7656V14.7656C4.66696 14.7656 4.81661 14.7381 5.05078 14.582C5.30724 14.4111 5.59832 14.1508 5.91992 13.7773L5.9248 13.7715L5.93066 13.7656C6.26389 13.3907 6.608 12.9304 6.96094 12.3789C7.31482 11.8143 7.66627 11.1831 8.01562 10.4844C8.14498 10.2257 8.34012 9.99913 8.60156 9.83594C8.87424 9.65416 9.18504 9.5625 9.50781 9.5625C9.96817 9.5625 10.3912 9.74638 10.7012 10.0977C10.7118 10.1092 10.7231 10.121 10.7334 10.1328H10.7324C10.9844 10.4213 11.1582 10.7936 11.1582 11.2305C11.1582 11.4698 11.1108 11.7359 10.9736 11.9912C10.8292 12.2679 10.6511 12.6023 10.4385 12.9922C10.2131 13.4053 9.95857 13.8275 9.67578 14.2578C9.38801 14.6957 9.07083 15.1317 8.72461 15.5645C8.37594 16.0032 7.99859 16.4058 7.59375 16.7715L7.58789 16.7773L7.58105 16.7832C7.15926 17.1506 6.70832 17.4574 6.22852 17.6973C5.70341 17.9598 5.14683 18.1016 4.56836 18.1016C3.89702 18.1016 3.2607 17.9588 2.69141 17.6406C2.16778 17.348 1.72305 16.9543 1.36035 16.4707L1.35449 16.4629L1.34766 16.4551C1.0012 15.973 0.750046 15.4233 0.582031 14.8213L0.578125 14.8086L0.575195 14.7949C0.424591 14.1924 0.351562 13.5598 0.351562 12.9004C0.351562 11.1711 0.459634 9.44764 0.675781 7.73047L0.676758 7.72266L0.677734 7.71387C0.731793 7.33566 0.901723 6.99671 1.17188 6.72656L1.30176 6.60938C1.61373 6.35622 1.9885 6.24023 2.37109 6.24023C2.84226 6.24023 3.25347 6.4406 3.5498 6.77832C3.55433 6.7833 3.55902 6.78892 3.56348 6.79395C3.56841 6.7997 3.57424 6.80471 3.5791 6.81055H3.57715C3.8453 7.11994 3.98633 7.49996 3.98633 7.9082C3.98633 8.04136 3.96127 8.315 3.92871 8.64062C3.90487 8.992 3.86919 9.40514 3.82422 9.87891L3.8252 9.87988C3.79031 10.3567 3.75568 10.8691 3.7207 11.417C3.69837 11.9363 3.6875 12.413 3.6875 12.8477C3.6875 13.4072 3.74083 13.7988 3.81641 14.0557C3.91177 14.327 4.00684 14.4817 4.07617 14.5635C4.18063 14.6715 4.24589 14.7024 4.26562 14.71C4.40169 14.7519 4.50688 14.7656 4.58594 14.7656V15.7656C4.38672 15.7656 4.17578 15.7305 3.95312 15.6602C3.74219 15.5898 3.53711 15.4492 3.33789 15.2383C3.15039 15.0273 2.99219 14.7344 2.86328 14.3594C2.74609 13.9727 2.6875 13.4688 2.6875 12.8477ZM4.19922 2.59961C4.19922 2.37695 4.1582 2.17188 4.07617 1.98438C3.99414 1.78516 3.87695 1.61523 3.72461 1.47461C3.58398 1.32227 3.41406 1.20508 3.21484 1.12305C3.02734 1.04102 2.82227 1 2.59961 1C2.37695 1 2.16602 1.04102 1.9668 1.12305C1.7793 1.20508 1.60938 1.32227 1.45703 1.47461C1.31641 1.61523 1.20508 1.78516 1.12305 1.98438C1.04102 2.17188 1 2.37695 1 2.59961C1 3.04492 1.15234 3.42578 1.45703 3.74219C1.77344 4.04688 2.1543 4.19922 2.59961 4.19922C3.04492 4.19922 3.41992 4.04688 3.72461 3.74219C4.04102 3.42578 4.19922 3.04492 4.19922 2.59961ZM3.00195 2.59961C3.00195 2.55987 2.99403 2.50404 2.96875 2.44336C2.94557 2.38781 2.91519 2.34738 2.89062 2.32129L2.88477 2.31445L2.87695 2.30762C2.85083 2.28323 2.8107 2.25335 2.75586 2.23047C2.69518 2.20518 2.63935 2.19727 2.59961 2.19727C2.55987 2.19727 2.50404 2.20518 2.44336 2.23047C2.39365 2.25121 2.3562 2.27789 2.33008 2.30078C2.30832 2.32449 2.28095 2.36077 2.25781 2.41113C2.22653 2.47939 2.21484 2.54672 2.21484 2.59961C2.21484 2.6525 2.22653 2.71983 2.25781 2.78809C2.27618 2.82806 2.29765 2.85881 2.31641 2.88184C2.33953 2.90081 2.37053 2.92275 2.41113 2.94141C2.47939 2.97269 2.54672 2.98438 2.59961 2.98438V3.19727C2.43555 3.19727 2.29492 3.13867 2.17773 3.02148C2.06055 2.9043 2.00195 2.76367 2.00195 2.59961C2.00195 2.43555 2.06055 2.29492 2.17773 2.17773C2.29492 2.04883 2.43555 1.98438 2.59961 1.98438C2.76367 1.98438 2.9043 2.04883 3.02148 2.17773C3.15039 2.29492 3.21484 2.43555 3.21484 2.59961C3.21484 2.76367 3.15039 2.9043 3.02148 3.02148C2.9043 3.13867 2.76367 3.19727 2.59961 3.19727V2.98438C2.6525 2.98438 2.71983 2.97269 2.78809 2.94141C2.83842 2.91828 2.87376 2.88991 2.89746 2.86816C2.92034 2.84205 2.94803 2.80552 2.96875 2.75586C2.99403 2.69518 3.00195 2.63935 3.00195 2.59961ZM5.19922 2.59961C5.19922 3.31158 4.93456 3.9463 4.43164 4.44922C3.93252 4.94834 3.30022 5.19922 2.59961 5.19922C1.89975 5.19922 1.26921 4.94954 0.763672 4.46289L0.736328 4.43555C0.249677 3.93001 0 3.29947 0 2.59961C0 2.25813 0.0639491 1.92246 0.200195 1.60352H0.198242C0.326317 1.29249 0.508493 1.00908 0.75 0.767578C0.985805 0.531773 1.25872 0.341642 1.56641 0.207031L1.57617 0.202148L1.58594 0.198242C1.90999 0.0648074 2.2508 0 2.59961 0C2.9408 0 3.27602 0.0641944 3.59473 0.200195L3.5957 0.198242C3.6008 0.200341 3.60527 0.203925 3.61035 0.206055C3.61184 0.206702 3.61375 0.206381 3.61523 0.207031L3.61426 0.208008C3.91057 0.332837 4.1754 0.51101 4.40234 0.741211L4.40332 0.740234C4.41263 0.748829 4.42054 0.758861 4.42969 0.767578C4.43905 0.777379 4.44976 0.785913 4.45898 0.795898L4.45801 0.796875C4.69319 1.02874 4.87577 1.29947 5.00098 1.60352H4.99902C5.13527 1.92246 5.19922 2.25813 5.19922 2.59961Z" fill="black"/>
</svg>
